ISO-10303-21;
HEADER;
/* Generated by software containing ST-Developer
 * from STEP Tools, Inc. (www.steptools.com) 
 */
/* OPTION: using custom renumber hook */

FILE_DESCRIPTION(
/* description */ ('STEP AP242 Edition 2',
'CAx-IF Rec.Pracs.---Representation and Presentation of Product Manufa
cturing Information (PMI)---4.0---2014-10-13',
'CAx-IF Rec.Pracs.---3D Tessellated Geometry---0.4---2014-09-14','2;1',
'CAx-IF Rec.Pracs.---User Defined Attributes---1.5---2016-08-15'),
/* implementation_level */ '2;1');

FILE_NAME(
/* name */ 'Part Studio 1 - Part 5',
/* time_stamp */ '2026-08-12T05:26:45Z',
/* author */ (''),
/* organization */ (''),
/* preprocessor_version */ 'ST-DEVELOPER v20',
/* originating_system */ 'ONSHAPE BY PTC INC, 1.219',
/* authorisation */ '  ');

FILE_SCHEMA (('AP242_MANAGED_MODEL_BASED_3D_ENGINEERING_MIM_LF { 1 0 10303 442 3 1 4 }'));
ENDSEC;

DATA;
#10=SHAPE_REPRESENTATION_RELATIONSHIP('','',#194,#11);
#11=ADVANCED_BREP_SHAPE_REPRESENTATION('',(#192),#445);
#12=(
BOUNDED_SURFACE()
B_SPLINE_SURFACE(3,3,((#352,#353,#354,#355),(#356,#357,#358,#359),(#360,
#361,#362,#363),(#364,#365,#366,#367),(#368,#369,#370,#371),(#372,#373,
#374,#375),(#376,#377,#378,#379)),.SURF_OF_REVOLUTION.,.F.,.F.,.F.)
B_SPLINE_SURFACE_WITH_KNOTS((4,1,1,1,4),(4,4),(2.70497236207073E-5,0.250020287292716,
0.50001352486181,0.750006762430905,1.),(0.,1.),.UNSPECIFIED.)
GEOMETRIC_REPRESENTATION_ITEM()
RATIONAL_B_SPLINE_SURFACE(((1.,0.433331155357894,0.433331155357894,1.),
(1.,0.433331155357894,0.433331155357894,1.),(1.,0.433331155357894,0.433331155357894,
1.),(1.,0.433331155357894,0.433331155357894,1.),(1.,0.433331155357894,0.433331155357894,
1.),(1.,0.433331155357894,0.433331155357894,1.),(1.,0.433331155357894,0.433331155357894,
1.)))
REPRESENTATION_ITEM('')
SURFACE()
);
#13=(
BOUNDED_SURFACE()
B_SPLINE_SURFACE(3,3,((#416,#417,#418,#419),(#420,#421,#422,#423),(#424,
#425,#426,#427),(#428,#429,#430,#431),(#432,#433,#434,#435),(#436,#437,
#438,#439),(#440,#441,#442,#443)),.SURF_OF_REVOLUTION.,.F.,.F.,.F.)
B_SPLINE_SURFACE_WITH_KNOTS((4,1,1,1,4),(4,4),(2.70497236951464E-5,0.250020287292771,
0.500013524861848,0.750006762430924,1.),(0.,1.),.UNSPECIFIED.)
GEOMETRIC_REPRESENTATION_ITEM()
RATIONAL_B_SPLINE_SURFACE(((1.,0.43333115535801,0.43333115535801,1.),(1.,
0.43333115535801,0.43333115535801,1.),(1.,0.43333115535801,0.43333115535801,
1.),(1.,0.43333115535801,0.43333115535801,1.),(1.,0.43333115535801,0.43333115535801,
1.),(1.,0.43333115535801,0.43333115535801,1.),(1.,0.43333115535801,0.43333115535801,
1.)))
REPRESENTATION_ITEM('')
SURFACE()
);
#14=B_SPLINE_SURFACE_WITH_KNOTS('',5,1,((#316,#317),(#318,#319),(#320,#321),
(#322,#323),(#324,#325),(#326,#327),(#328,#329),(#330,#331)),
 .SURF_OF_LINEAR_EXTRUSION.,.F.,.F.,.F.,(6,2,6),(2,2),(0.,0.5,1.),(0.,1.),
 .UNSPECIFIED.);
#15=B_SPLINE_SURFACE_WITH_KNOTS('',5,1,((#380,#381),(#382,#383),(#384,#385),
(#386,#387),(#388,#389),(#390,#391),(#392,#393),(#394,#395)),
 .SURF_OF_LINEAR_EXTRUSION.,.F.,.F.,.F.,(6,2,6),(2,2),(0.,0.5,1.),(0.,1.),
 .UNSPECIFIED.);
#16=CYLINDRICAL_SURFACE('',#200,0.00275);
#17=CYLINDRICAL_SURFACE('',#205,0.0035);
#18=CIRCLE('',#198,0.003);
#19=CIRCLE('',#199,0.00275);
#20=CIRCLE('',#201,0.00275);
#21=CIRCLE('',#202,0.00275);
#22=CIRCLE('',#203,0.00275);
#23=CIRCLE('',#204,0.00275);
#24=CIRCLE('',#206,0.0035);
#25=CIRCLE('',#207,0.0035);
#26=CIRCLE('',#212,0.003);
#27=LINE('',#272,#33);
#28=LINE('',#277,#34);
#29=LINE('',#311,#35);
#30=LINE('',#312,#36);
#31=LINE('',#314,#37);
#32=LINE('',#315,#38);
#33=VECTOR('',#220,1.);
#34=VECTOR('',#223,1.);
#35=VECTOR('',#252,1.);
#36=VECTOR('',#253,1.);
#37=VECTOR('',#256,1.);
#38=VECTOR('',#257,1.);
#39=ORIENTED_EDGE('',*,*,#85,.T.);
#40=ORIENTED_EDGE('',*,*,#86,.T.);
#41=ORIENTED_EDGE('',*,*,#87,.F.);
#42=ORIENTED_EDGE('',*,*,#88,.F.);
#43=ORIENTED_EDGE('',*,*,#89,.F.);
#44=ORIENTED_EDGE('',*,*,#90,.F.);
#45=ORIENTED_EDGE('',*,*,#91,.F.);
#46=ORIENTED_EDGE('',*,*,#90,.T.);
#47=ORIENTED_EDGE('',*,*,#92,.T.);
#48=ORIENTED_EDGE('',*,*,#93,.T.);
#49=ORIENTED_EDGE('',*,*,#94,.T.);
#50=ORIENTED_EDGE('',*,*,#95,.F.);
#51=ORIENTED_EDGE('',*,*,#96,.T.);
#52=ORIENTED_EDGE('',*,*,#95,.T.);
#53=ORIENTED_EDGE('',*,*,#91,.T.);
#54=ORIENTED_EDGE('',*,*,#96,.F.);
#55=ORIENTED_EDGE('',*,*,#97,.T.);
#56=ORIENTED_EDGE('',*,*,#98,.T.);
#57=ORIENTED_EDGE('',*,*,#99,.F.);
#58=ORIENTED_EDGE('',*,*,#100,.T.);
#59=ORIENTED_EDGE('',*,*,#93,.F.);
#60=ORIENTED_EDGE('',*,*,#101,.T.);
#61=ORIENTED_EDGE('',*,*,#102,.F.);
#62=ORIENTED_EDGE('',*,*,#94,.F.);
#63=ORIENTED_EDGE('',*,*,#103,.T.);
#64=ORIENTED_EDGE('',*,*,#92,.F.);
#65=ORIENTED_EDGE('',*,*,#103,.F.);
#66=ORIENTED_EDGE('',*,*,#100,.F.);
#67=ORIENTED_EDGE('',*,*,#104,.F.);
#68=ORIENTED_EDGE('',*,*,#97,.F.);
#69=ORIENTED_EDGE('',*,*,#105,.F.);
#70=ORIENTED_EDGE('',*,*,#101,.F.);
#71=ORIENTED_EDGE('',*,*,#104,.T.);
#72=ORIENTED_EDGE('',*,*,#99,.T.);
#73=ORIENTED_EDGE('',*,*,#105,.T.);
#74=ORIENTED_EDGE('',*,*,#98,.F.);
#75=ORIENTED_EDGE('',*,*,#102,.T.);
#76=ORIENTED_EDGE('',*,*,#89,.T.);
#77=ORIENTED_EDGE('',*,*,#106,.F.);
#78=ORIENTED_EDGE('',*,*,#85,.F.);
#79=ORIENTED_EDGE('',*,*,#107,.F.);
#80=ORIENTED_EDGE('',*,*,#87,.T.);
#81=ORIENTED_EDGE('',*,*,#106,.T.);
#82=ORIENTED_EDGE('',*,*,#88,.T.);
#83=ORIENTED_EDGE('',*,*,#107,.T.);
#84=ORIENTED_EDGE('',*,*,#86,.F.);
#85=EDGE_CURVE('',#108,#109,#123,.T.);
#86=EDGE_CURVE('',#109,#108,#124,.T.);
#87=EDGE_CURVE('',#110,#111,#27,.T.);
#88=EDGE_CURVE('',#112,#110,#18,.T.);
#89=EDGE_CURVE('',#113,#112,#28,.T.);
#90=EDGE_CURVE('',#111,#113,#19,.T.);
#91=EDGE_CURVE('',#114,#114,#20,.T.);
#92=EDGE_CURVE('',#113,#115,#21,.T.);
#93=EDGE_CURVE('',#115,#116,#22,.T.);
#94=EDGE_CURVE('',#116,#111,#23,.T.);
#95=EDGE_CURVE('',#117,#117,#24,.T.);
#96=EDGE_CURVE('',#118,#118,#25,.T.);
#97=EDGE_CURVE('',#119,#120,#125,.T.);
#98=EDGE_CURVE('',#120,#119,#126,.T.);
#99=EDGE_CURVE('',#121,#122,#26,.T.);
#100=EDGE_CURVE('',#121,#116,#29,.T.);
#101=EDGE_CURVE('',#115,#122,#30,.T.);
#102=EDGE_CURVE('',#111,#113,#31,.T.);
#103=EDGE_CURVE('',#116,#115,#32,.T.);
#104=EDGE_CURVE('',#120,#121,#127,.F.);
#105=EDGE_CURVE('',#122,#119,#128,.F.);
#106=EDGE_CURVE('',#109,#112,#129,.F.);
#107=EDGE_CURVE('',#110,#108,#130,.F.);
#108=VERTEX_POINT('',#264);
#109=VERTEX_POINT('',#265);
#110=VERTEX_POINT('',#273);
#111=VERTEX_POINT('',#274);
#112=VERTEX_POINT('',#276);
#113=VERTEX_POINT('',#278);
#114=VERTEX_POINT('',#282);
#115=VERTEX_POINT('',#284);
#116=VERTEX_POINT('',#286);
#117=VERTEX_POINT('',#290);
#118=VERTEX_POINT('',#292);
#119=VERTEX_POINT('',#300);
#120=VERTEX_POINT('',#301);
#121=VERTEX_POINT('',#309);
#122=VERTEX_POINT('',#310);
#123=B_SPLINE_CURVE_WITH_KNOTS('',3,(#260,#261,#262,#263),.UNSPECIFIED.,
 .F.,.F.,(4,4),(0.,1.),.UNSPECIFIED.);
#124=B_SPLINE_CURVE_WITH_KNOTS('',3,(#266,#267,#268,#269,#270),
 .UNSPECIFIED.,.F.,.F.,(4,1,4),(0.,0.5,1.),.UNSPECIFIED.);
#125=B_SPLINE_CURVE_WITH_KNOTS('',3,(#296,#297,#298,#299),.UNSPECIFIED.,
 .F.,.F.,(4,4),(0.,1.),.UNSPECIFIED.);
#126=B_SPLINE_CURVE_WITH_KNOTS('',3,(#302,#303,#304,#305,#306),
 .UNSPECIFIED.,.F.,.F.,(4,1,4),(0.,0.5,1.),.UNSPECIFIED.);
#127=B_SPLINE_CURVE_WITH_KNOTS('',3,(#332,#333,#334,#335,#336,#337,#338,
#339,#340,#341),.UNSPECIFIED.,.F.,.F.,(4,1,1,1,1,1,1,4),(0.,0.125,0.25,
0.375,0.5,0.625,0.75,1.),.UNSPECIFIED.);
#128=B_SPLINE_CURVE_WITH_KNOTS('',3,(#342,#343,#344,#345,#346,#347,#348,
#349,#350,#351),.UNSPECIFIED.,.F.,.F.,(4,1,1,1,1,1,1,4),(0.,0.25,0.375,
0.5,0.625,0.75,0.875,1.),.UNSPECIFIED.);
#129=B_SPLINE_CURVE_WITH_KNOTS('',3,(#396,#397,#398,#399,#400,#401,#402,
#403,#404,#405),.UNSPECIFIED.,.F.,.F.,(4,1,1,1,1,1,1,4),(0.,0.125,0.25,
0.375,0.5,0.625,0.75,1.),.UNSPECIFIED.);
#130=B_SPLINE_CURVE_WITH_KNOTS('',3,(#406,#407,#408,#409,#410,#411,#412,
#413,#414,#415),.UNSPECIFIED.,.F.,.F.,(4,1,1,1,1,1,1,4),(0.,0.25,0.375,
0.5,0.625,0.75,0.875,1.),.UNSPECIFIED.);
#131=EDGE_LOOP('',(#39,#40));
#132=EDGE_LOOP('',(#41,#42,#43,#44));
#133=EDGE_LOOP('',(#45));
#134=EDGE_LOOP('',(#46,#47,#48,#49));
#135=EDGE_LOOP('',(#50));
#136=EDGE_LOOP('',(#51));
#137=EDGE_LOOP('',(#52));
#138=EDGE_LOOP('',(#53));
#139=EDGE_LOOP('',(#54));
#140=EDGE_LOOP('',(#55,#56));
#141=EDGE_LOOP('',(#57,#58,#59,#60));
#142=EDGE_LOOP('',(#61,#62,#63,#64));
#143=EDGE_LOOP('',(#65,#66,#67,#68,#69,#70));
#144=EDGE_LOOP('',(#71,#72,#73,#74));
#145=EDGE_LOOP('',(#75,#76,#77,#78,#79,#80));
#146=EDGE_LOOP('',(#81,#82,#83,#84));
#147=FACE_BOUND('',#131,.T.);
#148=FACE_BOUND('',#132,.T.);
#149=FACE_BOUND('',#133,.T.);
#150=FACE_BOUND('',#134,.T.);
#151=FACE_BOUND('',#135,.T.);
#152=FACE_BOUND('',#136,.T.);
#153=FACE_BOUND('',#137,.T.);
#154=FACE_BOUND('',#138,.T.);
#155=FACE_BOUND('',#139,.T.);
#156=FACE_BOUND('',#140,.T.);
#157=FACE_BOUND('',#141,.T.);
#158=FACE_BOUND('',#142,.T.);
#159=FACE_BOUND('',#143,.T.);
#160=FACE_BOUND('',#144,.T.);
#161=FACE_BOUND('',#145,.T.);
#162=FACE_BOUND('',#146,.T.);
#163=PLANE('',#196);
#164=PLANE('',#197);
#165=PLANE('',#208);
#166=PLANE('',#209);
#167=PLANE('',#210);
#168=PLANE('',#211);
#169=PLANE('',#213);
#170=ADVANCED_FACE('',(#147),#163,.T.);
#171=ADVANCED_FACE('',(#148),#164,.F.);
#172=ADVANCED_FACE('',(#149,#150),#16,.T.);
#173=ADVANCED_FACE('',(#151,#152),#17,.T.);
#174=ADVANCED_FACE('',(#153),#165,.T.);
#175=ADVANCED_FACE('',(#154,#155),#166,.F.);
#176=ADVANCED_FACE('',(#156),#167,.T.);
#177=ADVANCED_FACE('',(#157),#168,.F.);
#178=ADVANCED_FACE('',(#158),#169,.T.);
#179=ADVANCED_FACE('',(#159),#14,.T.);
#180=ADVANCED_FACE('',(#160),#12,.F.);
#181=ADVANCED_FACE('',(#161),#15,.T.);
#182=ADVANCED_FACE('',(#162),#13,.F.);
#183=CLOSED_SHELL('',(#170,#171,#172,#173,#174,#175,#176,#177,#178,#179,
#180,#181,#182));
#184=STYLED_ITEM('',(#185),#192);
#185=PRESENTATION_STYLE_ASSIGNMENT((#186));
#186=SURFACE_STYLE_USAGE(.BOTH.,#187);
#187=SURFACE_SIDE_STYLE('',(#188));
#188=SURFACE_STYLE_FILL_AREA(#189);
#189=FILL_AREA_STYLE('',(#190));
#190=FILL_AREA_STYLE_COLOUR('',#191);
#191=COLOUR_RGB('',0.647058823529412,0.647058823529412,0.647058823529412);
#192=MANIFOLD_SOLID_BREP('Part 5',#183);
#193=SHAPE_DEFINITION_REPRESENTATION(#450,#194);
#194=SHAPE_REPRESENTATION('Part 5',(#195),#445);
#195=AXIS2_PLACEMENT_3D('',#258,#214,#215);
#196=AXIS2_PLACEMENT_3D('',#259,#216,#217);
#197=AXIS2_PLACEMENT_3D('',#271,#218,#219);
#198=AXIS2_PLACEMENT_3D('',#275,#221,#222);
#199=AXIS2_PLACEMENT_3D('',#279,#224,#225);
#200=AXIS2_PLACEMENT_3D('',#280,#226,#227);
#201=AXIS2_PLACEMENT_3D('',#281,#228,#229);
#202=AXIS2_PLACEMENT_3D('',#283,#230,#231);
#203=AXIS2_PLACEMENT_3D('',#285,#232,#233);
#204=AXIS2_PLACEMENT_3D('',#287,#234,#235);
#205=AXIS2_PLACEMENT_3D('',#288,#236,#237);
#206=AXIS2_PLACEMENT_3D('',#289,#238,#239);
#207=AXIS2_PLACEMENT_3D('',#291,#240,#241);
#208=AXIS2_PLACEMENT_3D('',#293,#242,#243);
#209=AXIS2_PLACEMENT_3D('',#294,#244,#245);
#210=AXIS2_PLACEMENT_3D('',#295,#246,#247);
#211=AXIS2_PLACEMENT_3D('',#307,#248,#249);
#212=AXIS2_PLACEMENT_3D('',#308,#250,#251);
#213=AXIS2_PLACEMENT_3D('',#313,#254,#255);
#214=DIRECTION('',(0.,0.,1.));
#215=DIRECTION('',(1.,0.,0.));
#216=DIRECTION('',(0.,-1.,0.));
#217=DIRECTION('',(1.,0.,0.));
#218=DIRECTION('',(0.,-1.,0.));
#219=DIRECTION('',(1.,0.,0.));
#220=DIRECTION('',(-1.,0.,0.));
#221=DIRECTION('',(0.,-1.,0.));
#222=DIRECTION('',(-1.,0.,0.));
#223=DIRECTION('',(-1.,0.,0.));
#224=DIRECTION('',(0.,1.,0.));
#225=DIRECTION('',(1.,0.,0.));
#226=DIRECTION('',(0.,-1.,0.));
#227=DIRECTION('',(-1.,0.,0.));
#228=DIRECTION('',(0.,1.,0.));
#229=DIRECTION('',(1.,0.,0.));
#230=DIRECTION('',(0.,1.,0.));
#231=DIRECTION('',(1.,0.,0.));
#232=DIRECTION('',(0.,1.,0.));
#233=DIRECTION('',(1.,0.,0.));
#234=DIRECTION('',(0.,1.,0.));
#235=DIRECTION('',(1.,0.,0.));
#236=DIRECTION('',(0.,-1.,0.));
#237=DIRECTION('',(-1.,0.,0.));
#238=DIRECTION('',(0.,1.,0.));
#239=DIRECTION('',(1.,0.,0.));
#240=DIRECTION('',(0.,1.,0.));
#241=DIRECTION('',(1.,0.,0.));
#242=DIRECTION('',(0.,1.,0.));
#243=DIRECTION('',(1.,0.,0.));
#244=DIRECTION('',(0.,1.,0.));
#245=DIRECTION('',(1.,0.,0.));
#246=DIRECTION('',(0.,-1.,0.));
#247=DIRECTION('',(1.,0.,0.));
#248=DIRECTION('',(0.,-1.,0.));
#249=DIRECTION('',(1.,0.,0.));
#250=DIRECTION('',(0.,-1.,0.));
#251=DIRECTION('',(-1.,0.,0.));
#252=DIRECTION('',(-1.,0.,0.));
#253=DIRECTION('',(-1.,0.,0.));
#254=DIRECTION('',(0.,-1.,0.));
#255=DIRECTION('',(1.,0.,0.));
#256=DIRECTION('',(-1.,0.,0.));
#257=DIRECTION('',(-1.,0.,0.));
#258=CARTESIAN_POINT('',(0.,0.,0.));
#259=CARTESIAN_POINT('',(-0.0351743176579475,-0.001,0.0332965925335884));
#260=CARTESIAN_POINT('',(-0.0338514419995493,-0.001,0.0317965925335884));
#261=CARTESIAN_POINT('',(-0.0347333591051486,-0.001,0.0317965925335884));
#262=CARTESIAN_POINT('',(-0.0356152762107479,-0.001,0.0317965925335884));
#263=CARTESIAN_POINT('',(-0.0364971933163472,-0.001,0.0317965925335884));
#264=CARTESIAN_POINT('',(-0.0338514419995493,-0.001,0.0317965925335884));
#265=CARTESIAN_POINT('',(-0.0364971933163472,-0.001,0.0317965925335884));
#266=CARTESIAN_POINT('',(-0.0364971933163428,-0.001,0.0317965925361133));
#267=CARTESIAN_POINT('',(-0.0361309041299468,-0.001,0.0314735558365061));
#268=CARTESIAN_POINT('',(-0.0351739477266851,-0.001,0.0311199554793795));
#269=CARTESIAN_POINT('',(-0.0342184710484732,-0.001,0.0314729033390885));
#270=CARTESIAN_POINT('',(-0.0338514419995523,-0.001,0.0317965925361133));
#271=CARTESIAN_POINT('',(-0.0351743176579475,0.,0.0332965925335884));
#272=CARTESIAN_POINT('',(-0.0351743176579475,0.,0.0327965925335884));
#273=CARTESIAN_POINT('',(-0.032216662409833,0.,0.0327966580096239));
#274=CARTESIAN_POINT('',(-0.0324701542013495,0.,0.0327965925335884));
#275=CARTESIAN_POINT('',(-0.0351743176579475,0.,0.0332965925335884));
#276=CARTESIAN_POINT('',(-0.0381319617596437,0.,0.0327965925335884));
#277=CARTESIAN_POINT('',(-0.0351743176579475,0.,0.0327965925335884));
#278=CARTESIAN_POINT('',(-0.0378784811145456,0.,0.0327965925335884));
#279=CARTESIAN_POINT('',(-0.0351743176579475,0.,0.0332965925335884));
#280=CARTESIAN_POINT('',(-0.0351743176579475,0.005,0.0332965925335884));
#281=CARTESIAN_POINT('',(-0.0351743176579475,0.005,0.0332965925335884));
#282=CARTESIAN_POINT('',(-0.0324243176579475,0.005,0.0332965925335884));
#283=CARTESIAN_POINT('',(-0.0351743176579475,0.,0.0332965925335884));
#284=CARTESIAN_POINT('',(-0.0378784811145456,0.,0.0337965925335884));
#285=CARTESIAN_POINT('',(-0.0351743176579475,0.,0.0332965925335884));
#286=CARTESIAN_POINT('',(-0.0324701542013495,0.,0.0337965925335884));
#287=CARTESIAN_POINT('',(-0.0351743176579475,0.,0.0332965925335884));
#288=CARTESIAN_POINT('',(-0.0351743176579475,0.006,0.0332965925335884));
#289=CARTESIAN_POINT('',(-0.0351743176579475,0.006,0.0332965925335884));
#290=CARTESIAN_POINT('',(-0.0316743176579475,0.006,0.0332965925335884));
#291=CARTESIAN_POINT('',(-0.0351743176579475,0.005,0.0332965925335884));
#292=CARTESIAN_POINT('',(-0.0316743176579475,0.005,0.0332965925335884));
#293=CARTESIAN_POINT('',(-0.0351743176579475,0.006,0.0332965925335884));
#294=CARTESIAN_POINT('',(-0.0351743176579475,0.005,0.0332965925335884));
#295=CARTESIAN_POINT('',(-0.0351743176579475,-0.001,0.0332965925335884));
#296=CARTESIAN_POINT('',(-0.0364971933163465,-0.001,0.0347965925335884));
#297=CARTESIAN_POINT('',(-0.0356152762107472,-0.001,0.0347965925335884));
#298=CARTESIAN_POINT('',(-0.0347333591051478,-0.001,0.0347965925335884));
#299=CARTESIAN_POINT('',(-0.0338514419995485,-0.001,0.0347965925335884));
#300=CARTESIAN_POINT('',(-0.0364971933163465,-0.001,0.0347965925335885));
#301=CARTESIAN_POINT('',(-0.0338514419995485,-0.001,0.0347965925335884));
#302=CARTESIAN_POINT('',(-0.0338514419995523,-0.001,0.0347965925310635));
#303=CARTESIAN_POINT('',(-0.0342177311859436,-0.001,0.0351196292306666));
#304=CARTESIAN_POINT('',(-0.0351746875892103,-0.001,0.0354732295878004));
#305=CARTESIAN_POINT('',(-0.0361301642674259,-0.001,0.0351202817280862));
#306=CARTESIAN_POINT('',(-0.0364971933163428,-0.001,0.0347965925310635));
#307=CARTESIAN_POINT('',(-0.0351743176579475,0.,0.0332965925335884));
#308=CARTESIAN_POINT('',(-0.0351743176579475,0.,0.0332965925335884));
#309=CARTESIAN_POINT('',(-0.0322166735562516,0.,0.0337965925335885));
#310=CARTESIAN_POINT('',(-0.0381319729060618,0.,0.0337965270575529));
#311=CARTESIAN_POINT('',(-0.0351743176579475,0.,0.0337965925335884));
#312=CARTESIAN_POINT('',(-0.0351743176579475,0.,0.0337965925335884));
#313=CARTESIAN_POINT('',(-0.0351743176579475,0.,0.0332965925335884));
#314=CARTESIAN_POINT('',(-0.0351743176579475,0.,0.0327965925335884));
#315=CARTESIAN_POINT('',(-0.0351743176579475,0.,0.0337965925335884));
#316=CARTESIAN_POINT('',(-0.0381674647021607,-0.001,0.0347965925335884));
#317=CARTESIAN_POINT('',(-0.0321811817601528,-0.001,0.0347965925335884));
#318=CARTESIAN_POINT('',(-0.0381674647021607,-0.001,0.0346465925335884));
#319=CARTESIAN_POINT('',(-0.0321811817601528,-0.001,0.0346465925335884));
#320=CARTESIAN_POINT('',(-0.0381674647021607,-0.000999999999999997,0.0344965925335884));
#321=CARTESIAN_POINT('',(-0.0321811817601528,-0.000999999999999997,0.0344965925335884));
#322=CARTESIAN_POINT('',(-0.0381674647021607,-0.000899999999999994,0.0341299258669217));
#323=CARTESIAN_POINT('',(-0.0321811817601528,-0.000899999999999994,0.0341299258669217));
#324=CARTESIAN_POINT('',(-0.0381674647021607,-0.000666666666666655,0.0338965925335884));
#325=CARTESIAN_POINT('',(-0.0321811817601528,-0.000666666666666655,0.0338965925335884));
#326=CARTESIAN_POINT('',(-0.0381674647021607,-0.0003,0.0337965925335884));
#327=CARTESIAN_POINT('',(-0.0321811817601528,-0.0003,0.0337965925335884));
#328=CARTESIAN_POINT('',(-0.0381674647021607,-0.00015,0.0337965925335884));
#329=CARTESIAN_POINT('',(-0.0321811817601528,-0.00015,0.0337965925335884));
#330=CARTESIAN_POINT('',(-0.0381674647021607,0.,0.0337965925335884));
#331=CARTESIAN_POINT('',(-0.0321811817601528,0.,0.0337965925335884));
#332=CARTESIAN_POINT('',(-0.0322166735562516,0.,0.0337965925335884));
#333=CARTESIAN_POINT('',(-0.0322166735562516,-0.00012431422683599,0.0337965925335884));
#334=CARTESIAN_POINT('',(-0.0322240352074927,-0.000297878606245965,0.0338031470772154));
#335=CARTESIAN_POINT('',(-0.0323550391121894,-0.000592927916399656,0.0339115807283143));
#336=CARTESIAN_POINT('',(-0.0325139029566689,-0.000756761731786632,0.0340371160237168));
#337=CARTESIAN_POINT('',(-0.0327894198176591,-0.000897101625686962,0.0342366825996136));
#338=CARTESIAN_POINT('',(-0.0329947539860882,-0.00094867191561127,0.0343709693188054));
#339=CARTESIAN_POINT('',(-0.0333947608824632,-0.00100454299083454,0.0346051810998329));
#340=CARTESIAN_POINT('',(-0.0336716132030264,-0.001,0.0347282434748901));
#341=CARTESIAN_POINT('',(-0.0338514419995522,-0.001,0.0347965925310635));
#342=CARTESIAN_POINT('',(-0.0364971933163428,-0.001,0.0347965925310635));
#343=CARTESIAN_POINT('',(-0.03667683923944,-0.001,0.0347283129811207));
#344=CARTESIAN_POINT('',(-0.0369540400143278,-0.00100446864983392,0.0346050543820396));
#345=CARTESIAN_POINT('',(-0.0373528237511942,-0.000948864906600077,0.0343716104215302));
#346=CARTESIAN_POINT('',(-0.0375581105405214,-0.00089743790206039,0.0342374438572494));
#347=CARTESIAN_POINT('',(-0.0378336904072917,-0.000757634122929024,0.0340379000074637));
#348=CARTESIAN_POINT('',(-0.0379930568982398,-0.000593385220958192,0.0339120209493301));
#349=CARTESIAN_POINT('',(-0.0381238917083873,-0.000300979987646889,0.0338037426937336));
#350=CARTESIAN_POINT('',(-0.0381319617596433,-0.000125180018902798,0.0337965925335884));
#351=CARTESIAN_POINT('',(-0.0381319617596433,0.,0.0337965925335884));
#352=CARTESIAN_POINT('',(-0.0371515736272493,-0.000999999999999907,0.0335967081463399));
#353=CARTESIAN_POINT('',(-0.036695325485374,-0.000999999999999928,0.0366042405989371));
#354=CARTESIAN_POINT('',(-0.0336533830435688,-0.000999999999999931,0.0366042742663149));
#355=CARTESIAN_POINT('',(-0.0331970683287303,-0.00099999999999991,0.0335967519137111));
#356=CARTESIAN_POINT('',(-0.0372751563038104,-0.000999999999268274,0.0336154558630937));
#357=CARTESIAN_POINT('',(-0.0367903916888915,-0.000999999999268296,0.0368109654497124));
#358=CARTESIAN_POINT('',(-0.0335583214160215,-0.000999999999268299,0.0368110012213724));
#359=CARTESIAN_POINT('',(-0.0330734860671885,-0.000999999999268278,0.033615502366018));
#360=CARTESIAN_POINT('',(-0.0375403498596441,-0.000986967965768209,0.0336556862077346));
#361=CARTESIAN_POINT('',(-0.0369943923243521,-0.000986967965768235,0.037254572108686));
#362=CARTESIAN_POINT('',(-0.0333543306000422,-0.000986967965768238,0.0372546123958825));
#363=CARTESIAN_POINT('',(-0.0328082934019364,-0.000986967965768214,0.0336557385808267));
#364=CARTESIAN_POINT('',(-0.0379226730184529,-0.000779930059399602,0.0337136853261321));
#365=CARTESIAN_POINT('',(-0.0372884951244866,-0.000779930059399631,0.037894109138891));
#366=CARTESIAN_POINT('',(-0.0330602419564175,-0.000779930059399635,0.0378941559360275));
#367=CARTESIAN_POINT('',(-0.0324259715270577,-0.000779930059399607,0.0337137461621039));
#368=CARTESIAN_POINT('',(-0.0381273494236936,-0.000393217121137227,0.0337447351089853));
#369=CARTESIAN_POINT('',(-0.0374459428294342,-0.000393217121137259,0.0382364847898155));
#370=CARTESIAN_POINT('',(-0.0329028018301464,-0.000393217121137263,0.0382365350720434));
#371=CARTESIAN_POINT('',(-0.032221295809168,-0.000393217121137233,0.0337448004755531));
#372=CARTESIAN_POINT('',(-0.0381402216640101,-0.000124996618784527,0.0337466878512478));
#373=CARTESIAN_POINT('',(-0.0374558448242098,-0.000124996618784559,0.0382580170306815));
#374=CARTESIAN_POINT('',(-0.032892900311999,-0.000124996618784563,0.0382580675320893));
#375=CARTESIAN_POINT('',(-0.0322084236120794,-0.000124996618784533,0.0337467535027479));
#376=CARTESIAN_POINT('',(-0.0381402216640101,2.04675164307694E-17,0.0337466878512479));
#377=CARTESIAN_POINT('',(-0.0374558448242098,-1.12252790021056E-17,0.0382580170306816));
#378=CARTESIAN_POINT('',(-0.032892900311999,-1.58994460977255E-17,0.0382580675320893));
#379=CARTESIAN_POINT('',(-0.0322084236120793,1.44174425402793E-17,0.0337467535027479));
#380=CARTESIAN_POINT('',(-0.0321811706137341,-0.001,0.0317965925335884));
#381=CARTESIAN_POINT('',(-0.0381674535557425,-0.001,0.0317965925335884));
#382=CARTESIAN_POINT('',(-0.0321811706137341,-0.001,0.0319465925335884));
#383=CARTESIAN_POINT('',(-0.0381674535557425,-0.001,0.0319465925335884));
#384=CARTESIAN_POINT('',(-0.0321811706137341,-0.001,0.0320965925335884));
#385=CARTESIAN_POINT('',(-0.0381674535557425,-0.001,0.0320965925335884));
#386=CARTESIAN_POINT('',(-0.0321811706137341,-0.0009,0.0324632592002551));
#387=CARTESIAN_POINT('',(-0.0381674535557425,-0.0009,0.0324632592002551));
#388=CARTESIAN_POINT('',(-0.0321811706137341,-0.000666666666666665,0.0326965925335884));
#389=CARTESIAN_POINT('',(-0.0381674535557425,-0.000666666666666665,0.0326965925335884));
#390=CARTESIAN_POINT('',(-0.0321811706137341,-0.0003,0.0327965925335884));
#391=CARTESIAN_POINT('',(-0.0381674535557425,-0.0003,0.0327965925335884));
#392=CARTESIAN_POINT('',(-0.0321811706137341,-0.00015,0.0327965925335884));
#393=CARTESIAN_POINT('',(-0.0381674535557425,-0.00015,0.0327965925335884));
#394=CARTESIAN_POINT('',(-0.0321811706137341,0.,0.0327965925335884));
#395=CARTESIAN_POINT('',(-0.0381674535557425,0.,0.0327965925335884));
#396=CARTESIAN_POINT('',(-0.0381319617596437,0.,0.0327965925335884));
#397=CARTESIAN_POINT('',(-0.0381319617596437,-0.000124314226836247,0.0327965925335884));
#398=CARTESIAN_POINT('',(-0.0381246001084025,-0.000297878606246209,0.032790037989961));
#399=CARTESIAN_POINT('',(-0.0379935962037055,-0.000592927916398463,0.0326816043388641));
#400=CARTESIAN_POINT('',(-0.0378347323592274,-0.000756761731791379,0.0325560690434541));
#401=CARTESIAN_POINT('',(-0.0375592154982457,-0.000897101625683961,0.0323565024675703));
#402=CARTESIAN_POINT('',(-0.0373538813297681,-0.000948671915618829,0.0322222157483485));
#403=CARTESIAN_POINT('',(-0.0369538744334584,-0.00100454299083005,0.0319880039673586));
#404=CARTESIAN_POINT('',(-0.0366770221128534,-0.001,0.0318649415922798));
#405=CARTESIAN_POINT('',(-0.0364971933163428,-0.001,0.0317965925361134));
#406=CARTESIAN_POINT('',(-0.0338514419995523,-0.001,0.0317965925361134));
#407=CARTESIAN_POINT('',(-0.0336717960762644,-0.001,0.0318648720861549));
#408=CARTESIAN_POINT('',(-0.0333945953017517,-0.00100446864986159,0.0319881306850377));
#409=CARTESIAN_POINT('',(-0.032995811564452,-0.0009488649065541,0.0322215746457786));
#410=CARTESIAN_POINT('',(-0.0327905247754559,-0.000897437902095899,0.0323557412098702));
#411=CARTESIAN_POINT('',(-0.0325149449084923,-0.000757634122826051,0.032555285059823));
#412=CARTESIAN_POINT('',(-0.0323555784176835,-0.000593385220986685,0.0326811641178173));
#413=CARTESIAN_POINT('',(-0.0322247436074988,-0.000300979987635133,0.0327894423734516));
#414=CARTESIAN_POINT('',(-0.0322166735562515,-0.000125180018911987,0.0327965925335884));
#415=CARTESIAN_POINT('',(-0.0322166735562515,0.,0.0327965925335884));
#416=CARTESIAN_POINT('',(-0.0331970616886448,-0.000999999999999923,0.0329964769208368));
#417=CARTESIAN_POINT('',(-0.0336533098305209,-0.000999999999999918,0.0299889444682397));
#418=CARTESIAN_POINT('',(-0.0366952522723262,-0.000999999999999918,0.0299889108008622));
#419=CARTESIAN_POINT('',(-0.037151566987165,-0.000999999999999923,0.0329964331534661));
#420=CARTESIAN_POINT('',(-0.0330734790120837,-0.000999999999268291,0.032977729204083));
#421=CARTESIAN_POINT('',(-0.0335582436270035,-0.000999999999268285,0.0297822196174644));
#422=CARTESIAN_POINT('',(-0.0367903138998735,-0.000999999999268285,0.0297821838458047));
#423=CARTESIAN_POINT('',(-0.0372751492487068,-0.000999999999268291,0.0329776827011591));
#424=CARTESIAN_POINT('',(-0.03280828545625,-0.000986967965768198,0.0329374988594421));
#425=CARTESIAN_POINT('',(-0.0333542429915428,-0.000986967965768192,0.0293386129584909));
#426=CARTESIAN_POINT('',(-0.0369943047158526,-0.000986967965768191,0.0293385726712947));
#427=CARTESIAN_POINT('',(-0.0375403419139589,-0.000986967965768197,0.0329374464863503));
#428=CARTESIAN_POINT('',(-0.0324259622974413,-0.000779930059399575,0.0328794997410446));
#429=CARTESIAN_POINT('',(-0.0330601401914084,-0.000779930059399567,0.0286990759282862));
#430=CARTESIAN_POINT('',(-0.0372883933594772,-0.000779930059399567,0.0286990291311498));
#431=CARTESIAN_POINT('',(-0.0379226637888375,-0.000779930059399575,0.032879438905073));
#432=CARTESIAN_POINT('',(-0.0322212858922007,-0.00039321712113722,0.0328484499581914));
#433=CARTESIAN_POINT('',(-0.0329026924864609,-0.000393217121137212,0.0283567002773619));
#434=CARTESIAN_POINT('',(-0.0374458334857482,-0.000393217121137212,0.0283566499951341));
#435=CARTESIAN_POINT('',(-0.0381273395067272,-0.00039321712113722,0.0328483845916238));
#436=CARTESIAN_POINT('',(-0.0322084136518841,-0.000124996618784543,0.0328464972159288));
#437=CARTESIAN_POINT('',(-0.0328927904916853,-0.000124996618784535,0.0283351680364958));
#438=CARTESIAN_POINT('',(-0.0374557350038955,-0.000124996618784535,0.0283351175350882));
#439=CARTESIAN_POINT('',(-0.0381402117038158,-0.000124996618784543,0.0328464315644289));
#440=CARTESIAN_POINT('',(-0.0322084136518841,-4.40077253207705E-18,0.0328464972159289));
#441=CARTESIAN_POINT('',(-0.0328927904916853,3.28324524856113E-18,0.0283351680364958));
#442=CARTESIAN_POINT('',(-0.0374557350038955,3.2484181539211E-18,0.0283351175350882));
#443=CARTESIAN_POINT('',(-0.0381402117038158,-4.42285034285503E-18,0.0328464315644289));
#444=MECHANICAL_DESIGN_GEOMETRIC_PRESENTATION_REPRESENTATION('',(#184),
#445);
#445=(
GEOMETRIC_REPRESENTATION_CONTEXT(3)
GLOBAL_UNCERTAINTY_ASSIGNED_CONTEXT((#446))
GLOBAL_UNIT_ASSIGNED_CONTEXT((#449,#448,#447))
REPRESENTATION_CONTEXT('Part 5','TOP_LEVEL_ASSEMBLY_PART')
);
#446=UNCERTAINTY_MEASURE_WITH_UNIT(LENGTH_MEASURE(2.E-5),#449,
'DISTANCE_ACCURACY_VALUE','Maximum Tolerance applied to model');
#447=(
NAMED_UNIT(*)
SI_UNIT($,.STERADIAN.)
SOLID_ANGLE_UNIT()
);
#448=(
NAMED_UNIT(*)
PLANE_ANGLE_UNIT()
SI_UNIT($,.RADIAN.)
);
#449=(
LENGTH_UNIT()
NAMED_UNIT(*)
SI_UNIT($,.METRE.)
);
#450=PRODUCT_DEFINITION_SHAPE('','',#451);
#451=PRODUCT_DEFINITION('','',#453,#452);
#452=PRODUCT_DEFINITION_CONTEXT('',#459,'design');
#453=PRODUCT_DEFINITION_FORMATION_WITH_SPECIFIED_SOURCE('','',#455,
 .NOT_KNOWN.);
#454=PRODUCT_RELATED_PRODUCT_CATEGORY('','',(#455));
#455=PRODUCT('Part 5','Part 5','Part 5',(#457));
#456=PRODUCT_CATEGORY('','');
#457=PRODUCT_CONTEXT('',#459,'mechanical');
#458=APPLICATION_PROTOCOL_DEFINITION('international standard',
'ap242_managed_model_based_3d_engineering',2020,#459);
#459=APPLICATION_CONTEXT('managed model based 3d engineering');
ENDSEC;
END-ISO-10303-21;
