ISO-10303-21;
HEADER;
/* Generated by software containing ST-Developer
 * from STEP Tools, Inc. (www.steptools.com) 
 */
/* OPTION: using custom renumber hook */

FILE_DESCRIPTION(
/* description */ ('STEP AP242 Edition 2',
'CAx-IF Rec.Pracs.---Representation and Presentation of Product Manufa
cturing Information (PMI)---4.0---2014-10-13',
'CAx-IF Rec.Pracs.---3D Tessellated Geometry---0.4---2014-09-14','2;1',
'CAx-IF Rec.Pracs.---User Defined Attributes---1.5---2016-08-15'),
/* implementation_level */ '2;1');

FILE_NAME(
/* name */ 'Part Studio 1 - Part 2',
/* time_stamp */ '2026-08-12T05:25:34Z',
/* author */ (''),
/* organization */ (''),
/* preprocessor_version */ 'ST-DEVELOPER v20',
/* originating_system */ 'ONSHAPE BY PTC INC, 1.219',
/* authorisation */ '  ');

FILE_SCHEMA (('AP242_MANAGED_MODEL_BASED_3D_ENGINEERING_MIM_LF { 1 0 10303 442 3 1 4 }'));
ENDSEC;

DATA;
#10=SHAPE_REPRESENTATION_RELATIONSHIP('','',#367,#11);
#11=ADVANCED_BREP_SHAPE_REPRESENTATION('',(#365),#581);
#12=LINE('',#490,#52);
#13=LINE('',#493,#53);
#14=LINE('',#495,#54);
#15=LINE('',#497,#55);
#16=LINE('',#499,#56);
#17=LINE('',#502,#57);
#18=LINE('',#504,#58);
#19=LINE('',#506,#59);
#20=LINE('',#508,#60);
#21=LINE('',#510,#61);
#22=LINE('',#512,#62);
#23=LINE('',#514,#63);
#24=LINE('',#517,#64);
#25=LINE('',#518,#65);
#26=LINE('',#520,#66);
#27=LINE('',#521,#67);
#28=LINE('',#523,#68);
#29=LINE('',#526,#69);
#30=LINE('',#528,#70);
#31=LINE('',#530,#71);
#32=LINE('',#532,#72);
#33=LINE('',#534,#73);
#34=LINE('',#536,#74);
#35=LINE('',#538,#75);
#36=LINE('',#540,#76);
#37=LINE('',#542,#77);
#38=LINE('',#544,#78);
#39=LINE('',#546,#79);
#40=LINE('',#548,#80);
#41=LINE('',#550,#81);
#42=LINE('',#552,#82);
#43=LINE('',#559,#83);
#44=LINE('',#561,#84);
#45=LINE('',#563,#85);
#46=LINE('',#565,#86);
#47=LINE('',#567,#87);
#48=LINE('',#569,#88);
#49=LINE('',#571,#89);
#50=LINE('',#573,#90);
#51=LINE('',#575,#91);
#52=VECTOR('',#403,1.);
#53=VECTOR('',#404,1.);
#54=VECTOR('',#405,1.);
#55=VECTOR('',#406,1.);
#56=VECTOR('',#409,1.);
#57=VECTOR('',#410,1.);
#58=VECTOR('',#411,1.);
#59=VECTOR('',#412,1.);
#60=VECTOR('',#415,1.);
#61=VECTOR('',#416,1.);
#62=VECTOR('',#417,1.);
#63=VECTOR('',#420,1.);
#64=VECTOR('',#421,1.);
#65=VECTOR('',#422,1.);
#66=VECTOR('',#425,1.);
#67=VECTOR('',#426,1.);
#68=VECTOR('',#429,1.);
#69=VECTOR('',#430,1.);
#70=VECTOR('',#431,1.);
#71=VECTOR('',#432,1.);
#72=VECTOR('',#435,1.);
#73=VECTOR('',#436,1.);
#74=VECTOR('',#437,1.);
#75=VECTOR('',#440,1.);
#76=VECTOR('',#441,1.);
#77=VECTOR('',#442,1.);
#78=VECTOR('',#445,1.);
#79=VECTOR('',#446,1.);
#80=VECTOR('',#447,1.);
#81=VECTOR('',#448,1.);
#82=VECTOR('',#449,1.);
#83=VECTOR('',#460,1.);
#84=VECTOR('',#461,1.);
#85=VECTOR('',#464,1.);
#86=VECTOR('',#465,1.);
#87=VECTOR('',#468,1.);
#88=VECTOR('',#469,1.);
#89=VECTOR('',#472,1.);
#90=VECTOR('',#473,1.);
#91=VECTOR('',#476,1.);
#92=PLANE('',#372);
#93=PLANE('',#373);
#94=PLANE('',#374);
#95=PLANE('',#375);
#96=PLANE('',#376);
#97=PLANE('',#377);
#98=PLANE('',#378);
#99=PLANE('',#379);
#100=PLANE('',#380);
#101=PLANE('',#385);
#102=PLANE('',#386);
#103=PLANE('',#387);
#104=PLANE('',#388);
#105=PLANE('',#389);
#106=PLANE('',#390);
#107=ORIENTED_EDGE('',*,*,#199,.T.);
#108=ORIENTED_EDGE('',*,*,#200,.T.);
#109=ORIENTED_EDGE('',*,*,#201,.T.);
#110=ORIENTED_EDGE('',*,*,#202,.F.);
#111=ORIENTED_EDGE('',*,*,#203,.F.);
#112=ORIENTED_EDGE('',*,*,#204,.T.);
#113=ORIENTED_EDGE('',*,*,#205,.F.);
#114=ORIENTED_EDGE('',*,*,#206,.F.);
#115=ORIENTED_EDGE('',*,*,#207,.T.);
#116=ORIENTED_EDGE('',*,*,#208,.T.);
#117=ORIENTED_EDGE('',*,*,#209,.T.);
#118=ORIENTED_EDGE('',*,*,#208,.F.);
#119=ORIENTED_EDGE('',*,*,#210,.F.);
#120=ORIENTED_EDGE('',*,*,#211,.T.);
#121=ORIENTED_EDGE('',*,*,#212,.T.);
#122=ORIENTED_EDGE('',*,*,#213,.T.);
#123=ORIENTED_EDGE('',*,*,#211,.F.);
#124=ORIENTED_EDGE('',*,*,#214,.F.);
#125=ORIENTED_EDGE('',*,*,#215,.F.);
#126=ORIENTED_EDGE('',*,*,#212,.F.);
#127=ORIENTED_EDGE('',*,*,#216,.T.);
#128=ORIENTED_EDGE('',*,*,#206,.T.);
#129=ORIENTED_EDGE('',*,*,#217,.T.);
#130=ORIENTED_EDGE('',*,*,#218,.F.);
#131=ORIENTED_EDGE('',*,*,#219,.F.);
#132=ORIENTED_EDGE('',*,*,#220,.T.);
#133=ORIENTED_EDGE('',*,*,#221,.F.);
#134=ORIENTED_EDGE('',*,*,#220,.F.);
#135=ORIENTED_EDGE('',*,*,#222,.T.);
#136=ORIENTED_EDGE('',*,*,#223,.T.);
#137=ORIENTED_EDGE('',*,*,#224,.F.);
#138=ORIENTED_EDGE('',*,*,#223,.F.);
#139=ORIENTED_EDGE('',*,*,#225,.T.);
#140=ORIENTED_EDGE('',*,*,#226,.T.);
#141=ORIENTED_EDGE('',*,*,#213,.F.);
#142=ORIENTED_EDGE('',*,*,#215,.T.);
#143=ORIENTED_EDGE('',*,*,#205,.T.);
#144=ORIENTED_EDGE('',*,*,#209,.F.);
#145=ORIENTED_EDGE('',*,*,#221,.T.);
#146=ORIENTED_EDGE('',*,*,#224,.T.);
#147=ORIENTED_EDGE('',*,*,#227,.T.);
#148=ORIENTED_EDGE('',*,*,#228,.T.);
#149=ORIENTED_EDGE('',*,*,#229,.T.);
#150=ORIENTED_EDGE('',*,*,#230,.F.);
#151=ORIENTED_EDGE('',*,*,#231,.F.);
#152=ORIENTED_EDGE('',*,*,#201,.F.);
#153=ORIENTED_EDGE('',*,*,#232,.F.);
#154=ORIENTED_EDGE('',*,*,#217,.F.);
#155=ORIENTED_EDGE('',*,*,#199,.F.);
#156=ORIENTED_EDGE('',*,*,#233,.F.);
#157=ORIENTED_EDGE('',*,*,#218,.T.);
#158=ORIENTED_EDGE('',*,*,#232,.T.);
#159=ORIENTED_EDGE('',*,*,#204,.F.);
#160=ORIENTED_EDGE('',*,*,#234,.T.);
#161=ORIENTED_EDGE('',*,*,#202,.T.);
#162=ORIENTED_EDGE('',*,*,#231,.T.);
#163=ORIENTED_EDGE('',*,*,#235,.F.);
#164=ORIENTED_EDGE('',*,*,#236,.T.);
#165=ORIENTED_EDGE('',*,*,#237,.T.);
#166=ORIENTED_EDGE('',*,*,#227,.F.);
#167=ORIENTED_EDGE('',*,*,#226,.F.);
#168=ORIENTED_EDGE('',*,*,#238,.T.);
#169=ORIENTED_EDGE('',*,*,#228,.F.);
#170=ORIENTED_EDGE('',*,*,#237,.F.);
#171=ORIENTED_EDGE('',*,*,#239,.T.);
#172=ORIENTED_EDGE('',*,*,#240,.T.);
#173=ORIENTED_EDGE('',*,*,#235,.T.);
#174=ORIENTED_EDGE('',*,*,#230,.T.);
#175=ORIENTED_EDGE('',*,*,#241,.F.);
#176=ORIENTED_EDGE('',*,*,#242,.F.);
#177=ORIENTED_EDGE('',*,*,#229,.F.);
#178=ORIENTED_EDGE('',*,*,#240,.F.);
#179=ORIENTED_EDGE('',*,*,#243,.T.);
#180=ORIENTED_EDGE('',*,*,#241,.T.);
#181=ORIENTED_EDGE('',*,*,#216,.F.);
#182=ORIENTED_EDGE('',*,*,#214,.T.);
#183=ORIENTED_EDGE('',*,*,#210,.T.);
#184=ORIENTED_EDGE('',*,*,#207,.F.);
#185=ORIENTED_EDGE('',*,*,#225,.F.);
#186=ORIENTED_EDGE('',*,*,#222,.F.);
#187=ORIENTED_EDGE('',*,*,#219,.T.);
#188=ORIENTED_EDGE('',*,*,#234,.F.);
#189=ORIENTED_EDGE('',*,*,#203,.T.);
#190=ORIENTED_EDGE('',*,*,#236,.F.);
#191=ORIENTED_EDGE('',*,*,#242,.T.);
#192=ORIENTED_EDGE('',*,*,#243,.F.);
#193=ORIENTED_EDGE('',*,*,#239,.F.);
#194=ORIENTED_EDGE('',*,*,#238,.F.);
#195=ORIENTED_EDGE('',*,*,#200,.F.);
#196=ORIENTED_EDGE('',*,*,#244,.F.);
#197=ORIENTED_EDGE('',*,*,#233,.T.);
#198=ORIENTED_EDGE('',*,*,#244,.T.);
#199=EDGE_CURVE('',#245,#245,#277,.F.);
#200=EDGE_CURVE('',#246,#246,#278,.T.);
#201=EDGE_CURVE('',#247,#248,#12,.T.);
#202=EDGE_CURVE('',#249,#248,#13,.T.);
#203=EDGE_CURVE('',#250,#249,#14,.T.);
#204=EDGE_CURVE('',#250,#247,#15,.T.);
#205=EDGE_CURVE('',#251,#252,#16,.T.);
#206=EDGE_CURVE('',#253,#251,#17,.T.);
#207=EDGE_CURVE('',#253,#254,#18,.T.);
#208=EDGE_CURVE('',#254,#252,#19,.T.);
#209=EDGE_CURVE('',#255,#252,#20,.T.);
#210=EDGE_CURVE('',#256,#254,#21,.T.);
#211=EDGE_CURVE('',#256,#255,#22,.T.);
#212=EDGE_CURVE('',#257,#258,#23,.T.);
#213=EDGE_CURVE('',#258,#255,#24,.T.);
#214=EDGE_CURVE('',#257,#256,#25,.T.);
#215=EDGE_CURVE('',#258,#251,#26,.T.);
#216=EDGE_CURVE('',#257,#253,#27,.T.);
#217=EDGE_CURVE('',#259,#260,#28,.T.);
#218=EDGE_CURVE('',#261,#260,#29,.T.);
#219=EDGE_CURVE('',#262,#261,#30,.T.);
#220=EDGE_CURVE('',#262,#259,#31,.T.);
#221=EDGE_CURVE('',#259,#263,#32,.T.);
#222=EDGE_CURVE('',#262,#264,#33,.T.);
#223=EDGE_CURVE('',#264,#263,#34,.T.);
#224=EDGE_CURVE('',#263,#265,#35,.T.);
#225=EDGE_CURVE('',#264,#266,#36,.T.);
#226=EDGE_CURVE('',#266,#265,#37,.T.);
#227=EDGE_CURVE('',#265,#267,#38,.T.);
#228=EDGE_CURVE('',#267,#268,#39,.T.);
#229=EDGE_CURVE('',#268,#269,#40,.T.);
#230=EDGE_CURVE('',#270,#269,#41,.T.);
#231=EDGE_CURVE('',#248,#270,#42,.T.);
#232=EDGE_CURVE('',#260,#247,#279,.F.);
#233=EDGE_CURVE('',#271,#271,#280,.F.);
#234=EDGE_CURVE('',#250,#261,#281,.T.);
#235=EDGE_CURVE('',#272,#270,#43,.T.);
#236=EDGE_CURVE('',#272,#249,#44,.T.);
#237=EDGE_CURVE('',#273,#267,#45,.T.);
#238=EDGE_CURVE('',#266,#273,#46,.T.);
#239=EDGE_CURVE('',#273,#274,#47,.T.);
#240=EDGE_CURVE('',#274,#268,#48,.T.);
#241=EDGE_CURVE('',#275,#269,#49,.T.);
#242=EDGE_CURVE('',#272,#275,#50,.T.);
#243=EDGE_CURVE('',#274,#275,#51,.T.);
#244=EDGE_CURVE('',#276,#276,#282,.T.);
#245=VERTEX_POINT('',#486);
#246=VERTEX_POINT('',#488);
#247=VERTEX_POINT('',#491);
#248=VERTEX_POINT('',#492);
#249=VERTEX_POINT('',#494);
#250=VERTEX_POINT('',#496);
#251=VERTEX_POINT('',#500);
#252=VERTEX_POINT('',#501);
#253=VERTEX_POINT('',#503);
#254=VERTEX_POINT('',#505);
#255=VERTEX_POINT('',#509);
#256=VERTEX_POINT('',#511);
#257=VERTEX_POINT('',#515);
#258=VERTEX_POINT('',#516);
#259=VERTEX_POINT('',#524);
#260=VERTEX_POINT('',#525);
#261=VERTEX_POINT('',#527);
#262=VERTEX_POINT('',#529);
#263=VERTEX_POINT('',#533);
#264=VERTEX_POINT('',#535);
#265=VERTEX_POINT('',#539);
#266=VERTEX_POINT('',#541);
#267=VERTEX_POINT('',#545);
#268=VERTEX_POINT('',#547);
#269=VERTEX_POINT('',#549);
#270=VERTEX_POINT('',#551);
#271=VERTEX_POINT('',#555);
#272=VERTEX_POINT('',#560);
#273=VERTEX_POINT('',#564);
#274=VERTEX_POINT('',#568);
#275=VERTEX_POINT('',#572);
#276=VERTEX_POINT('',#578);
#277=CIRCLE('',#370,0.003);
#278=CIRCLE('',#371,0.003);
#279=CIRCLE('',#381,0.003);
#280=CIRCLE('',#382,0.003);
#281=CIRCLE('',#384,0.003);
#282=CIRCLE('',#391,0.003);
#283=EDGE_LOOP('',(#107));
#284=EDGE_LOOP('',(#108));
#285=EDGE_LOOP('',(#109,#110,#111,#112));
#286=EDGE_LOOP('',(#113,#114,#115,#116));
#287=EDGE_LOOP('',(#117,#118,#119,#120));
#288=EDGE_LOOP('',(#121,#122,#123,#124));
#289=EDGE_LOOP('',(#125,#126,#127,#128));
#290=EDGE_LOOP('',(#129,#130,#131,#132));
#291=EDGE_LOOP('',(#133,#134,#135,#136));
#292=EDGE_LOOP('',(#137,#138,#139,#140));
#293=EDGE_LOOP('',(#141,#142,#143,#144));
#294=EDGE_LOOP('',(#145,#146,#147,#148,#149,#150,#151,#152,#153,#154));
#295=EDGE_LOOP('',(#155));
#296=EDGE_LOOP('',(#156));
#297=EDGE_LOOP('',(#157,#158,#159,#160));
#298=EDGE_LOOP('',(#161,#162,#163,#164));
#299=EDGE_LOOP('',(#165,#166,#167,#168));
#300=EDGE_LOOP('',(#169,#170,#171,#172));
#301=EDGE_LOOP('',(#173,#174,#175,#176));
#302=EDGE_LOOP('',(#177,#178,#179,#180));
#303=EDGE_LOOP('',(#181,#182,#183,#184));
#304=EDGE_LOOP('',(#185,#186,#187,#188,#189,#190,#191,#192,#193,#194));
#305=EDGE_LOOP('',(#195));
#306=EDGE_LOOP('',(#196));
#307=EDGE_LOOP('',(#197));
#308=EDGE_LOOP('',(#198));
#309=FACE_BOUND('',#283,.T.);
#310=FACE_BOUND('',#284,.T.);
#311=FACE_BOUND('',#285,.T.);
#312=FACE_BOUND('',#286,.T.);
#313=FACE_BOUND('',#287,.T.);
#314=FACE_BOUND('',#288,.T.);
#315=FACE_BOUND('',#289,.T.);
#316=FACE_BOUND('',#290,.T.);
#317=FACE_BOUND('',#291,.T.);
#318=FACE_BOUND('',#292,.T.);
#319=FACE_BOUND('',#293,.T.);
#320=FACE_BOUND('',#294,.T.);
#321=FACE_BOUND('',#295,.T.);
#322=FACE_BOUND('',#296,.T.);
#323=FACE_BOUND('',#297,.T.);
#324=FACE_BOUND('',#298,.T.);
#325=FACE_BOUND('',#299,.T.);
#326=FACE_BOUND('',#300,.T.);
#327=FACE_BOUND('',#301,.T.);
#328=FACE_BOUND('',#302,.T.);
#329=FACE_BOUND('',#303,.T.);
#330=FACE_BOUND('',#304,.T.);
#331=FACE_BOUND('',#305,.T.);
#332=FACE_BOUND('',#306,.T.);
#333=FACE_BOUND('',#307,.T.);
#334=FACE_BOUND('',#308,.T.);
#335=CYLINDRICAL_SURFACE('',#369,0.003);
#336=CYLINDRICAL_SURFACE('',#383,0.003);
#337=CYLINDRICAL_SURFACE('',#392,0.003);
#338=ADVANCED_FACE('',(#309,#310),#335,.F.);
#339=ADVANCED_FACE('',(#311),#92,.F.);
#340=ADVANCED_FACE('',(#312),#93,.T.);
#341=ADVANCED_FACE('',(#313),#94,.F.);
#342=ADVANCED_FACE('',(#314),#95,.F.);
#343=ADVANCED_FACE('',(#315),#96,.T.);
#344=ADVANCED_FACE('',(#316),#97,.F.);
#345=ADVANCED_FACE('',(#317),#98,.T.);
#346=ADVANCED_FACE('',(#318),#99,.T.);
#347=ADVANCED_FACE('',(#319,#320,#321,#322),#100,.F.);
#348=ADVANCED_FACE('',(#323),#336,.F.);
#349=ADVANCED_FACE('',(#324),#101,.F.);
#350=ADVANCED_FACE('',(#325),#102,.F.);
#351=ADVANCED_FACE('',(#326),#103,.T.);
#352=ADVANCED_FACE('',(#327),#104,.F.);
#353=ADVANCED_FACE('',(#328),#105,.T.);
#354=ADVANCED_FACE('',(#329,#330,#331,#332),#106,.T.);
#355=ADVANCED_FACE('',(#333,#334),#337,.F.);
#356=CLOSED_SHELL('',(#338,#339,#340,#341,#342,#343,#344,#345,#346,#347,
#348,#349,#350,#351,#352,#353,#354,#355));
#357=STYLED_ITEM('',(#358),#365);
#358=PRESENTATION_STYLE_ASSIGNMENT((#359));
#359=SURFACE_STYLE_USAGE(.BOTH.,#360);
#360=SURFACE_SIDE_STYLE('',(#361));
#361=SURFACE_STYLE_FILL_AREA(#362);
#362=FILL_AREA_STYLE('',(#363));
#363=FILL_AREA_STYLE_COLOUR('',#364);
#364=COLOUR_RGB('',0.615686274509804,0.811764705882353,0.929411764705882);
#365=MANIFOLD_SOLID_BREP('Part 2',#356);
#366=SHAPE_DEFINITION_REPRESENTATION(#586,#367);
#367=SHAPE_REPRESENTATION('Part 2',(#368),#581);
#368=AXIS2_PLACEMENT_3D('',#483,#393,#394);
#369=AXIS2_PLACEMENT_3D('',#484,#395,#396);
#370=AXIS2_PLACEMENT_3D('',#485,#397,#398);
#371=AXIS2_PLACEMENT_3D('',#487,#399,#400);
#372=AXIS2_PLACEMENT_3D('',#489,#401,#402);
#373=AXIS2_PLACEMENT_3D('',#498,#407,#408);
#374=AXIS2_PLACEMENT_3D('',#507,#413,#414);
#375=AXIS2_PLACEMENT_3D('',#513,#418,#419);
#376=AXIS2_PLACEMENT_3D('',#519,#423,#424);
#377=AXIS2_PLACEMENT_3D('',#522,#427,#428);
#378=AXIS2_PLACEMENT_3D('',#531,#433,#434);
#379=AXIS2_PLACEMENT_3D('',#537,#438,#439);
#380=AXIS2_PLACEMENT_3D('',#543,#443,#444);
#381=AXIS2_PLACEMENT_3D('',#553,#450,#451);
#382=AXIS2_PLACEMENT_3D('',#554,#452,#453);
#383=AXIS2_PLACEMENT_3D('',#556,#454,#455);
#384=AXIS2_PLACEMENT_3D('',#557,#456,#457);
#385=AXIS2_PLACEMENT_3D('',#558,#458,#459);
#386=AXIS2_PLACEMENT_3D('',#562,#462,#463);
#387=AXIS2_PLACEMENT_3D('',#566,#466,#467);
#388=AXIS2_PLACEMENT_3D('',#570,#470,#471);
#389=AXIS2_PLACEMENT_3D('',#574,#474,#475);
#390=AXIS2_PLACEMENT_3D('',#576,#477,#478);
#391=AXIS2_PLACEMENT_3D('',#577,#479,#480);
#392=AXIS2_PLACEMENT_3D('',#579,#481,#482);
#393=DIRECTION('',(0.,0.,1.));
#394=DIRECTION('',(1.,0.,0.));
#395=DIRECTION('',(0.,1.,0.));
#396=DIRECTION('',(1.,0.,0.));
#397=DIRECTION('',(0.,1.,0.));
#398=DIRECTION('',(1.,0.,0.));
#399=DIRECTION('',(0.,1.,0.));
#400=DIRECTION('',(1.,0.,0.));
#401=DIRECTION('',(0.,0.,-1.));
#402=DIRECTION('',(0.,1.,0.));
#403=DIRECTION('',(1.,0.,0.));
#404=DIRECTION('',(0.,-1.,0.));
#405=DIRECTION('',(1.,0.,0.));
#406=DIRECTION('',(0.,-1.,0.));
#407=DIRECTION('',(0.,0.,1.));
#408=DIRECTION('',(0.,-1.,0.));
#409=DIRECTION('',(-1.,0.,0.));
#410=DIRECTION('',(0.,-1.,0.));
#411=DIRECTION('',(-1.,0.,0.));
#412=DIRECTION('',(0.,-1.,0.));
#413=DIRECTION('',(-1.,0.,0.));
#414=DIRECTION('',(0.,1.,0.));
#415=DIRECTION('',(0.,0.,-1.));
#416=DIRECTION('',(0.,0.,-1.));
#417=DIRECTION('',(0.,-1.,0.));
#418=DIRECTION('',(1.020425574104E-16,0.,1.));
#419=DIRECTION('',(1.,0.,-1.020425574104E-16));
#420=DIRECTION('',(0.,-1.,0.));
#421=DIRECTION('',(-1.,0.,1.020425574104E-16));
#422=DIRECTION('',(-1.,0.,1.020425574104E-16));
#423=DIRECTION('',(-1.,0.,2.56996070515082E-16));
#424=DIRECTION('',(2.56996070515082E-16,0.,1.));
#425=DIRECTION('',(-2.56996070515082E-16,0.,-1.));
#426=DIRECTION('',(-2.56996070515082E-16,0.,-1.));
#427=DIRECTION('',(0.,0.,-1.));
#428=DIRECTION('',(0.,1.,0.));
#429=DIRECTION('',(1.,0.,0.));
#430=DIRECTION('',(0.,-1.,0.));
#431=DIRECTION('',(1.,0.,0.));
#432=DIRECTION('',(0.,-1.,0.));
#433=DIRECTION('',(1.,0.,-6.95119070329611E-17));
#434=DIRECTION('',(-6.95119070329611E-17,0.,-1.));
#435=DIRECTION('',(6.95119070329611E-17,0.,1.));
#436=DIRECTION('',(6.95119070329611E-17,0.,1.));
#437=DIRECTION('',(0.,-1.,0.));
#438=DIRECTION('',(0.,0.,-1.));
#439=DIRECTION('',(0.,1.,0.));
#440=DIRECTION('',(1.,0.,0.));
#441=DIRECTION('',(1.,0.,0.));
#442=DIRECTION('',(0.,-1.,0.));
#443=DIRECTION('',(0.,1.,0.));
#444=DIRECTION('',(1.,0.,0.));
#445=DIRECTION('',(-4.62592926927149E-17,0.,1.));
#446=DIRECTION('',(-1.,0.,-2.77555756156289E-16));
#447=DIRECTION('',(0.,0.,-1.));
#448=DIRECTION('',(-1.,0.,-2.77555756156289E-16));
#449=DIRECTION('',(4.62592926927149E-17,0.,-1.));
#450=DIRECTION('',(0.,1.,0.));
#451=DIRECTION('',(1.,0.,0.));
#452=DIRECTION('',(0.,1.,0.));
#453=DIRECTION('',(1.,0.,0.));
#454=DIRECTION('',(0.,1.,0.));
#455=DIRECTION('',(1.,0.,0.));
#456=DIRECTION('',(0.,1.,0.));
#457=DIRECTION('',(1.,0.,0.));
#458=DIRECTION('',(-1.,0.,-4.62592926927149E-17));
#459=DIRECTION('',(-4.62592926927149E-17,0.,1.));
#460=DIRECTION('',(0.,-1.,0.));
#461=DIRECTION('',(-4.62592926927149E-17,0.,1.));
#462=DIRECTION('',(-1.,0.,-4.62592926927149E-17));
#463=DIRECTION('',(-4.62592926927149E-17,0.,1.));
#464=DIRECTION('',(0.,-1.,0.));
#465=DIRECTION('',(-4.62592926927149E-17,0.,1.));
#466=DIRECTION('',(-2.77555756156289E-16,0.,1.));
#467=DIRECTION('',(1.,0.,2.77555756156289E-16));
#468=DIRECTION('',(-1.,0.,-2.77555756156289E-16));
#469=DIRECTION('',(0.,-1.,0.));
#470=DIRECTION('',(-2.77555756156289E-16,0.,1.));
#471=DIRECTION('',(1.,0.,2.77555756156289E-16));
#472=DIRECTION('',(0.,-1.,0.));
#473=DIRECTION('',(-1.,0.,-2.77555756156289E-16));
#474=DIRECTION('',(-1.,0.,0.));
#475=DIRECTION('',(0.,1.,0.));
#476=DIRECTION('',(0.,0.,-1.));
#477=DIRECTION('',(0.,1.,0.));
#478=DIRECTION('',(1.,0.,0.));
#479=DIRECTION('',(0.,1.,0.));
#480=DIRECTION('',(1.,0.,0.));
#481=DIRECTION('',(0.,1.,0.));
#482=DIRECTION('',(1.,0.,0.));
#483=CARTESIAN_POINT('',(0.,0.,0.));
#484=CARTESIAN_POINT('',(-0.1605,0.0005,-0.068));
#485=CARTESIAN_POINT('',(-0.1605,0.0035,-0.068));
#486=CARTESIAN_POINT('',(-0.1575,0.0035,-0.068));
#487=CARTESIAN_POINT('',(-0.1605,0.0065,-0.068));
#488=CARTESIAN_POINT('',(-0.1575,0.0065,-0.068));
#489=CARTESIAN_POINT('',(-0.0971548237638624,0.0065,-0.062995342273122));
#490=CARTESIAN_POINT('',(-0.0971548237638624,0.0035,-0.062995342273122));
#491=CARTESIAN_POINT('',(-0.092673223947352,0.0035,-0.062995342273122));
#492=CARTESIAN_POINT('',(-0.0905,0.0035,-0.062995342273122));
#493=CARTESIAN_POINT('',(-0.0905,0.0065,-0.062995342273122));
#494=CARTESIAN_POINT('',(-0.0905,0.0065,-0.062995342273122));
#495=CARTESIAN_POINT('',(-0.0971548237638624,0.0065,-0.062995342273122));
#496=CARTESIAN_POINT('',(-0.092673223947352,0.0065,-0.062995342273122));
#497=CARTESIAN_POINT('',(-0.092673223947352,0.0065,-0.062995342273122));
#498=CARTESIAN_POINT('',(-0.131,0.0065,-0.05175));
#499=CARTESIAN_POINT('',(-0.131,0.0035,-0.05175));
#500=CARTESIAN_POINT('',(-0.114,0.0035,-0.05175));
#501=CARTESIAN_POINT('',(-0.148,0.0035,-0.05175));
#502=CARTESIAN_POINT('',(-0.114,0.0065,-0.05175));
#503=CARTESIAN_POINT('',(-0.114,0.0065,-0.05175));
#504=CARTESIAN_POINT('',(-0.131,0.0065,-0.05175));
#505=CARTESIAN_POINT('',(-0.148,0.0065,-0.05175));
#506=CARTESIAN_POINT('',(-0.148,0.0065,-0.05175));
#507=CARTESIAN_POINT('',(-0.148,0.0065,-0.03825));
#508=CARTESIAN_POINT('',(-0.148,0.0035,-0.03825));
#509=CARTESIAN_POINT('',(-0.148,0.0035,-0.02475));
#510=CARTESIAN_POINT('',(-0.148,0.0065,-0.03825));
#511=CARTESIAN_POINT('',(-0.148,0.0065,-0.02475));
#512=CARTESIAN_POINT('',(-0.148,0.0065,-0.02475));
#513=CARTESIAN_POINT('',(-0.131,0.0065,-0.02475));
#514=CARTESIAN_POINT('',(-0.114,0.0065,-0.02475));
#515=CARTESIAN_POINT('',(-0.114,0.0065,-0.02475));
#516=CARTESIAN_POINT('',(-0.114,0.0035,-0.02475));
#517=CARTESIAN_POINT('',(-0.131,0.0035,-0.02475));
#518=CARTESIAN_POINT('',(-0.131,0.0065,-0.02475));
#519=CARTESIAN_POINT('',(-0.114,0.0065,-0.03825));
#520=CARTESIAN_POINT('',(-0.114,0.0035,-0.03825));
#521=CARTESIAN_POINT('',(-0.114,0.0065,-0.03825));
#522=CARTESIAN_POINT('',(-0.0971548237638624,0.0065,-0.062995342273122));
#523=CARTESIAN_POINT('',(-0.0971548237638624,0.0035,-0.062995342273122));
#524=CARTESIAN_POINT('',(-0.103809647527725,0.0035,-0.062995342273122));
#525=CARTESIAN_POINT('',(-0.098326776052648,0.0035,-0.062995342273122));
#526=CARTESIAN_POINT('',(-0.098326776052648,0.0065,-0.062995342273122));
#527=CARTESIAN_POINT('',(-0.098326776052648,0.0065,-0.062995342273122));
#528=CARTESIAN_POINT('',(-0.0971548237638624,0.0065,-0.062995342273122));
#529=CARTESIAN_POINT('',(-0.103809647527725,0.0065,-0.062995342273122));
#530=CARTESIAN_POINT('',(-0.103809647527725,0.0065,-0.062995342273122));
#531=CARTESIAN_POINT('',(-0.103809647527725,0.0065,-0.0380395677875474));
#532=CARTESIAN_POINT('',(-0.103809647527725,0.0035,-0.0380395677875474));
#533=CARTESIAN_POINT('',(-0.103809647527725,0.0035,-0.0130837933019728));
#534=CARTESIAN_POINT('',(-0.103809647527725,0.0065,-0.0380395677875474));
#535=CARTESIAN_POINT('',(-0.103809647527725,0.0065,-0.0130837933019728));
#536=CARTESIAN_POINT('',(-0.103809647527725,0.0065,-0.0130837933019728));
#537=CARTESIAN_POINT('',(-0.0971548237638624,0.0065,-0.0130837933019728));
#538=CARTESIAN_POINT('',(-0.0971548237638624,0.0035,-0.0130837933019728));
#539=CARTESIAN_POINT('',(-0.0905,0.0035,-0.0130837933019728));
#540=CARTESIAN_POINT('',(-0.0971548237638624,0.0065,-0.0130837933019728));
#541=CARTESIAN_POINT('',(-0.0905,0.0065,-0.0130837933019728));
#542=CARTESIAN_POINT('',(-0.0905,0.0065,-0.0130837933019728));
#543=CARTESIAN_POINT('',(-0.128,0.0035,-0.038));
#544=CARTESIAN_POINT('',(-0.0905,0.0035,-0.038));
#545=CARTESIAN_POINT('',(-0.0905,0.0035,-0.003));
#546=CARTESIAN_POINT('',(-0.0905,0.0035,-0.003));
#547=CARTESIAN_POINT('',(-0.1655,0.0035,-0.003));
#548=CARTESIAN_POINT('',(-0.1655,0.0035,-0.038));
#549=CARTESIAN_POINT('',(-0.1655,0.0035,-0.073));
#550=CARTESIAN_POINT('',(-0.0905,0.0035,-0.073));
#551=CARTESIAN_POINT('',(-0.0905,0.0035,-0.073));
#552=CARTESIAN_POINT('',(-0.0905,0.0035,-0.073));
#553=CARTESIAN_POINT('',(-0.0955,0.0035,-0.064));
#554=CARTESIAN_POINT('',(-0.1605,0.0035,-0.008));
#555=CARTESIAN_POINT('',(-0.1575,0.0035,-0.008));
#556=CARTESIAN_POINT('',(-0.0955,0.0005,-0.064));
#557=CARTESIAN_POINT('',(-0.0955,0.0065,-0.064));
#558=CARTESIAN_POINT('',(-0.0905,0.0035,-0.073));
#559=CARTESIAN_POINT('',(-0.0905,0.0035,-0.073));
#560=CARTESIAN_POINT('',(-0.0905,0.0065,-0.073));
#561=CARTESIAN_POINT('',(-0.0905,0.0065,-0.038));
#562=CARTESIAN_POINT('',(-0.0905,0.0035,-0.073));
#563=CARTESIAN_POINT('',(-0.0905,0.0035,-0.003));
#564=CARTESIAN_POINT('',(-0.0905,0.0065,-0.003));
#565=CARTESIAN_POINT('',(-0.0905,0.0065,-0.038));
#566=CARTESIAN_POINT('',(-0.0905,0.0035,-0.003));
#567=CARTESIAN_POINT('',(-0.0905,0.0065,-0.003));
#568=CARTESIAN_POINT('',(-0.1655,0.0065,-0.003));
#569=CARTESIAN_POINT('',(-0.1655,0.0035,-0.003));
#570=CARTESIAN_POINT('',(-0.0905,0.0035,-0.073));
#571=CARTESIAN_POINT('',(-0.1655,0.0035,-0.073));
#572=CARTESIAN_POINT('',(-0.1655,0.0065,-0.073));
#573=CARTESIAN_POINT('',(-0.0905,0.0065,-0.073));
#574=CARTESIAN_POINT('',(-0.1655,0.0035,-0.038));
#575=CARTESIAN_POINT('',(-0.1655,0.0065,-0.038));
#576=CARTESIAN_POINT('',(-0.128,0.0065,-0.038));
#577=CARTESIAN_POINT('',(-0.1605,0.0065,-0.008));
#578=CARTESIAN_POINT('',(-0.1575,0.0065,-0.008));
#579=CARTESIAN_POINT('',(-0.1605,0.0005,-0.008));
#580=MECHANICAL_DESIGN_GEOMETRIC_PRESENTATION_REPRESENTATION('',(#357),
#581);
#581=(
GEOMETRIC_REPRESENTATION_CONTEXT(3)
GLOBAL_UNCERTAINTY_ASSIGNED_CONTEXT((#582))
GLOBAL_UNIT_ASSIGNED_CONTEXT((#585,#584,#583))
REPRESENTATION_CONTEXT('Part 2','TOP_LEVEL_ASSEMBLY_PART')
);
#582=UNCERTAINTY_MEASURE_WITH_UNIT(LENGTH_MEASURE(1.E-8),#585,
'DISTANCE_ACCURACY_VALUE','Maximum Tolerance applied to model');
#583=(
NAMED_UNIT(*)
SI_UNIT($,.STERADIAN.)
SOLID_ANGLE_UNIT()
);
#584=(
NAMED_UNIT(*)
PLANE_ANGLE_UNIT()
SI_UNIT($,.RADIAN.)
);
#585=(
LENGTH_UNIT()
NAMED_UNIT(*)
SI_UNIT($,.METRE.)
);
#586=PRODUCT_DEFINITION_SHAPE('','',#587);
#587=PRODUCT_DEFINITION('','',#589,#588);
#588=PRODUCT_DEFINITION_CONTEXT('',#595,'design');
#589=PRODUCT_DEFINITION_FORMATION_WITH_SPECIFIED_SOURCE('','',#591,
 .NOT_KNOWN.);
#590=PRODUCT_RELATED_PRODUCT_CATEGORY('','',(#591));
#591=PRODUCT('Part 2','Part 2','Part 2',(#593));
#592=PRODUCT_CATEGORY('','');
#593=PRODUCT_CONTEXT('',#595,'mechanical');
#594=APPLICATION_PROTOCOL_DEFINITION('international standard',
'ap242_managed_model_based_3d_engineering',2020,#595);
#595=APPLICATION_CONTEXT('managed model based 3d engineering');
ENDSEC;
END-ISO-10303-21;
