ISO-10303-21;
HEADER;
/* Generated by software containing ST-Developer
 * from STEP Tools, Inc. (www.steptools.com) 
 */
/* OPTION: using custom renumber hook */

FILE_DESCRIPTION(
/* description */ ('STEP AP242 Edition 2',
'CAx-IF Rec.Pracs.---Representation and Presentation of Product Manufa
cturing Information (PMI)---4.0---2014-10-13',
'CAx-IF Rec.Pracs.---3D Tessellated Geometry---0.4---2014-09-14','2;1',
'CAx-IF Rec.Pracs.---User Defined Attributes---1.5---2016-08-15'),
/* implementation_level */ '2;1');

FILE_NAME(
/* name */ 'Part Studio 1 - Part 4',
/* time_stamp */ '2026-08-12T05:26:27Z',
/* author */ (''),
/* organization */ (''),
/* preprocessor_version */ 'ST-DEVELOPER v20',
/* originating_system */ 'ONSHAPE BY PTC INC, 1.219',
/* authorisation */ '  ');

FILE_SCHEMA (('AP242_MANAGED_MODEL_BASED_3D_ENGINEERING_MIM_LF { 1 0 10303 442 3 1 4 }'));
ENDSEC;

DATA;
#10=SHAPE_REPRESENTATION_RELATIONSHIP('','',#455,#11);
#11=ADVANCED_BREP_SHAPE_REPRESENTATION('',(#453),#717);
#12=LINE('',#602,#64);
#13=LINE('',#605,#65);
#14=LINE('',#607,#66);
#15=LINE('',#609,#67);
#16=LINE('',#611,#68);
#17=LINE('',#613,#69);
#18=LINE('',#615,#70);
#19=LINE('',#617,#71);
#20=LINE('',#619,#72);
#21=LINE('',#621,#73);
#22=LINE('',#623,#74);
#23=LINE('',#624,#75);
#24=LINE('',#626,#76);
#25=LINE('',#629,#77);
#26=LINE('',#631,#78);
#27=LINE('',#633,#79);
#28=LINE('',#635,#80);
#29=LINE('',#638,#81);
#30=LINE('',#640,#82);
#31=LINE('',#642,#83);
#32=LINE('',#644,#84);
#33=LINE('',#645,#85);
#34=LINE('',#647,#86);
#35=LINE('',#650,#87);
#36=LINE('',#652,#88);
#37=LINE('',#654,#89);
#38=LINE('',#656,#90);
#39=LINE('',#659,#91);
#40=LINE('',#660,#92);
#41=LINE('',#662,#93);
#42=LINE('',#664,#94);
#43=LINE('',#666,#95);
#44=LINE('',#668,#96);
#45=LINE('',#669,#97);
#46=LINE('',#671,#98);
#47=LINE('',#674,#99);
#48=LINE('',#677,#100);
#49=LINE('',#679,#101);
#50=LINE('',#681,#102);
#51=LINE('',#683,#103);
#52=LINE('',#687,#104);
#53=LINE('',#689,#105);
#54=LINE('',#691,#106);
#55=LINE('',#695,#107);
#56=LINE('',#697,#108);
#57=LINE('',#699,#109);
#58=LINE('',#701,#110);
#59=LINE('',#703,#111);
#60=LINE('',#705,#112);
#61=LINE('',#707,#113);
#62=LINE('',#709,#114);
#63=LINE('',#711,#115);
#64=VECTOR('',#495,1.);
#65=VECTOR('',#496,1.);
#66=VECTOR('',#497,1.);
#67=VECTOR('',#498,1.);
#68=VECTOR('',#501,1.);
#69=VECTOR('',#502,1.);
#70=VECTOR('',#503,1.);
#71=VECTOR('',#506,1.);
#72=VECTOR('',#507,1.);
#73=VECTOR('',#508,1.);
#74=VECTOR('',#511,1.);
#75=VECTOR('',#512,1.);
#76=VECTOR('',#515,1.);
#77=VECTOR('',#516,1.);
#78=VECTOR('',#517,1.);
#79=VECTOR('',#518,1.);
#80=VECTOR('',#521,1.);
#81=VECTOR('',#522,1.);
#82=VECTOR('',#523,1.);
#83=VECTOR('',#524,1.);
#84=VECTOR('',#527,1.);
#85=VECTOR('',#528,1.);
#86=VECTOR('',#531,1.);
#87=VECTOR('',#532,1.);
#88=VECTOR('',#533,1.);
#89=VECTOR('',#534,1.);
#90=VECTOR('',#537,1.);
#91=VECTOR('',#538,1.);
#92=VECTOR('',#539,1.);
#93=VECTOR('',#542,1.);
#94=VECTOR('',#543,1.);
#95=VECTOR('',#544,1.);
#96=VECTOR('',#547,1.);
#97=VECTOR('',#548,1.);
#98=VECTOR('',#551,1.);
#99=VECTOR('',#552,1.);
#100=VECTOR('',#555,1.);
#101=VECTOR('',#556,1.);
#102=VECTOR('',#557,1.);
#103=VECTOR('',#558,1.);
#104=VECTOR('',#563,1.);
#105=VECTOR('',#564,1.);
#106=VECTOR('',#565,1.);
#107=VECTOR('',#572,1.);
#108=VECTOR('',#573,1.);
#109=VECTOR('',#576,1.);
#110=VECTOR('',#577,1.);
#111=VECTOR('',#580,1.);
#112=VECTOR('',#581,1.);
#113=VECTOR('',#582,1.);
#114=VECTOR('',#585,1.);
#115=VECTOR('',#588,1.);
#116=PLANE('',#460);
#117=PLANE('',#461);
#118=PLANE('',#462);
#119=PLANE('',#463);
#120=PLANE('',#464);
#121=PLANE('',#465);
#122=PLANE('',#466);
#123=PLANE('',#467);
#124=PLANE('',#468);
#125=PLANE('',#469);
#126=PLANE('',#470);
#127=PLANE('',#471);
#128=PLANE('',#474);
#129=PLANE('',#477);
#130=PLANE('',#478);
#131=PLANE('',#479);
#132=PLANE('',#480);
#133=PLANE('',#481);
#134=PLANE('',#482);
#135=ORIENTED_EDGE('',*,*,#251,.T.);
#136=ORIENTED_EDGE('',*,*,#252,.T.);
#137=ORIENTED_EDGE('',*,*,#253,.T.);
#138=ORIENTED_EDGE('',*,*,#254,.F.);
#139=ORIENTED_EDGE('',*,*,#255,.F.);
#140=ORIENTED_EDGE('',*,*,#256,.T.);
#141=ORIENTED_EDGE('',*,*,#257,.T.);
#142=ORIENTED_EDGE('',*,*,#256,.F.);
#143=ORIENTED_EDGE('',*,*,#258,.F.);
#144=ORIENTED_EDGE('',*,*,#259,.T.);
#145=ORIENTED_EDGE('',*,*,#260,.F.);
#146=ORIENTED_EDGE('',*,*,#259,.F.);
#147=ORIENTED_EDGE('',*,*,#261,.T.);
#148=ORIENTED_EDGE('',*,*,#262,.T.);
#149=ORIENTED_EDGE('',*,*,#263,.F.);
#150=ORIENTED_EDGE('',*,*,#262,.F.);
#151=ORIENTED_EDGE('',*,*,#264,.T.);
#152=ORIENTED_EDGE('',*,*,#254,.T.);
#153=ORIENTED_EDGE('',*,*,#265,.T.);
#154=ORIENTED_EDGE('',*,*,#266,.F.);
#155=ORIENTED_EDGE('',*,*,#267,.F.);
#156=ORIENTED_EDGE('',*,*,#268,.T.);
#157=ORIENTED_EDGE('',*,*,#269,.F.);
#158=ORIENTED_EDGE('',*,*,#270,.F.);
#159=ORIENTED_EDGE('',*,*,#271,.T.);
#160=ORIENTED_EDGE('',*,*,#272,.T.);
#161=ORIENTED_EDGE('',*,*,#266,.T.);
#162=ORIENTED_EDGE('',*,*,#273,.T.);
#163=ORIENTED_EDGE('',*,*,#272,.F.);
#164=ORIENTED_EDGE('',*,*,#274,.F.);
#165=ORIENTED_EDGE('',*,*,#275,.T.);
#166=ORIENTED_EDGE('',*,*,#276,.F.);
#167=ORIENTED_EDGE('',*,*,#277,.F.);
#168=ORIENTED_EDGE('',*,*,#278,.T.);
#169=ORIENTED_EDGE('',*,*,#279,.T.);
#170=ORIENTED_EDGE('',*,*,#280,.T.);
#171=ORIENTED_EDGE('',*,*,#278,.F.);
#172=ORIENTED_EDGE('',*,*,#281,.F.);
#173=ORIENTED_EDGE('',*,*,#282,.F.);
#174=ORIENTED_EDGE('',*,*,#279,.F.);
#175=ORIENTED_EDGE('',*,*,#283,.T.);
#176=ORIENTED_EDGE('',*,*,#284,.T.);
#177=ORIENTED_EDGE('',*,*,#285,.F.);
#178=ORIENTED_EDGE('',*,*,#284,.F.);
#179=ORIENTED_EDGE('',*,*,#286,.T.);
#180=ORIENTED_EDGE('',*,*,#276,.T.);
#181=ORIENTED_EDGE('',*,*,#287,.T.);
#182=ORIENTED_EDGE('',*,*,#288,.F.);
#183=ORIENTED_EDGE('',*,*,#269,.T.);
#184=ORIENTED_EDGE('',*,*,#273,.F.);
#185=ORIENTED_EDGE('',*,*,#265,.F.);
#186=ORIENTED_EDGE('',*,*,#289,.F.);
#187=ORIENTED_EDGE('',*,*,#290,.F.);
#188=ORIENTED_EDGE('',*,*,#291,.T.);
#189=ORIENTED_EDGE('',*,*,#292,.F.);
#190=ORIENTED_EDGE('',*,*,#293,.F.);
#191=ORIENTED_EDGE('',*,*,#257,.F.);
#192=ORIENTED_EDGE('',*,*,#260,.T.);
#193=ORIENTED_EDGE('',*,*,#263,.T.);
#194=ORIENTED_EDGE('',*,*,#253,.F.);
#195=ORIENTED_EDGE('',*,*,#285,.T.);
#196=ORIENTED_EDGE('',*,*,#275,.F.);
#197=ORIENTED_EDGE('',*,*,#280,.F.);
#198=ORIENTED_EDGE('',*,*,#282,.T.);
#199=ORIENTED_EDGE('',*,*,#294,.F.);
#200=ORIENTED_EDGE('',*,*,#252,.F.);
#201=ORIENTED_EDGE('',*,*,#290,.T.);
#202=ORIENTED_EDGE('',*,*,#295,.F.);
#203=ORIENTED_EDGE('',*,*,#296,.F.);
#204=ORIENTED_EDGE('',*,*,#297,.T.);
#205=ORIENTED_EDGE('',*,*,#295,.T.);
#206=ORIENTED_EDGE('',*,*,#289,.T.);
#207=ORIENTED_EDGE('',*,*,#268,.F.);
#208=ORIENTED_EDGE('',*,*,#298,.T.);
#209=ORIENTED_EDGE('',*,*,#291,.F.);
#210=ORIENTED_EDGE('',*,*,#297,.F.);
#211=ORIENTED_EDGE('',*,*,#299,.F.);
#212=ORIENTED_EDGE('',*,*,#300,.T.);
#213=ORIENTED_EDGE('',*,*,#288,.T.);
#214=ORIENTED_EDGE('',*,*,#301,.F.);
#215=ORIENTED_EDGE('',*,*,#302,.F.);
#216=ORIENTED_EDGE('',*,*,#270,.T.);
#217=ORIENTED_EDGE('',*,*,#303,.T.);
#218=ORIENTED_EDGE('',*,*,#293,.T.);
#219=ORIENTED_EDGE('',*,*,#304,.F.);
#220=ORIENTED_EDGE('',*,*,#305,.F.);
#221=ORIENTED_EDGE('',*,*,#304,.T.);
#222=ORIENTED_EDGE('',*,*,#292,.T.);
#223=ORIENTED_EDGE('',*,*,#300,.F.);
#224=ORIENTED_EDGE('',*,*,#306,.F.);
#225=ORIENTED_EDGE('',*,*,#287,.F.);
#226=ORIENTED_EDGE('',*,*,#303,.F.);
#227=ORIENTED_EDGE('',*,*,#307,.T.);
#228=ORIENTED_EDGE('',*,*,#301,.T.);
#229=ORIENTED_EDGE('',*,*,#274,.T.);
#230=ORIENTED_EDGE('',*,*,#271,.F.);
#231=ORIENTED_EDGE('',*,*,#302,.T.);
#232=ORIENTED_EDGE('',*,*,#307,.F.);
#233=ORIENTED_EDGE('',*,*,#305,.T.);
#234=ORIENTED_EDGE('',*,*,#306,.T.);
#235=ORIENTED_EDGE('',*,*,#299,.T.);
#236=ORIENTED_EDGE('',*,*,#296,.T.);
#237=ORIENTED_EDGE('',*,*,#298,.F.);
#238=ORIENTED_EDGE('',*,*,#267,.T.);
#239=ORIENTED_EDGE('',*,*,#264,.F.);
#240=ORIENTED_EDGE('',*,*,#261,.F.);
#241=ORIENTED_EDGE('',*,*,#258,.T.);
#242=ORIENTED_EDGE('',*,*,#255,.T.);
#243=ORIENTED_EDGE('',*,*,#286,.F.);
#244=ORIENTED_EDGE('',*,*,#283,.F.);
#245=ORIENTED_EDGE('',*,*,#281,.T.);
#246=ORIENTED_EDGE('',*,*,#277,.T.);
#247=ORIENTED_EDGE('',*,*,#308,.F.);
#248=ORIENTED_EDGE('',*,*,#251,.F.);
#249=ORIENTED_EDGE('',*,*,#294,.T.);
#250=ORIENTED_EDGE('',*,*,#308,.T.);
#251=EDGE_CURVE('',#309,#309,#349,.T.);
#252=EDGE_CURVE('',#310,#310,#350,.F.);
#253=EDGE_CURVE('',#311,#312,#12,.T.);
#254=EDGE_CURVE('',#313,#312,#13,.T.);
#255=EDGE_CURVE('',#314,#313,#14,.T.);
#256=EDGE_CURVE('',#314,#311,#15,.T.);
#257=EDGE_CURVE('',#315,#311,#16,.T.);
#258=EDGE_CURVE('',#316,#314,#17,.T.);
#259=EDGE_CURVE('',#316,#315,#18,.T.);
#260=EDGE_CURVE('',#315,#317,#19,.T.);
#261=EDGE_CURVE('',#316,#318,#20,.T.);
#262=EDGE_CURVE('',#318,#317,#21,.T.);
#263=EDGE_CURVE('',#317,#312,#22,.T.);
#264=EDGE_CURVE('',#318,#313,#23,.T.);
#265=EDGE_CURVE('',#319,#320,#24,.T.);
#266=EDGE_CURVE('',#321,#320,#25,.T.);
#267=EDGE_CURVE('',#322,#321,#26,.T.);
#268=EDGE_CURVE('',#322,#319,#27,.T.);
#269=EDGE_CURVE('',#323,#324,#28,.T.);
#270=EDGE_CURVE('',#325,#323,#29,.T.);
#271=EDGE_CURVE('',#325,#326,#30,.T.);
#272=EDGE_CURVE('',#326,#324,#31,.T.);
#273=EDGE_CURVE('',#320,#324,#32,.T.);
#274=EDGE_CURVE('',#321,#326,#33,.T.);
#275=EDGE_CURVE('',#327,#328,#34,.T.);
#276=EDGE_CURVE('',#329,#328,#35,.T.);
#277=EDGE_CURVE('',#330,#329,#36,.T.);
#278=EDGE_CURVE('',#330,#327,#37,.T.);
#279=EDGE_CURVE('',#331,#332,#38,.T.);
#280=EDGE_CURVE('',#332,#327,#39,.T.);
#281=EDGE_CURVE('',#331,#330,#40,.T.);
#282=EDGE_CURVE('',#332,#333,#41,.T.);
#283=EDGE_CURVE('',#331,#334,#42,.T.);
#284=EDGE_CURVE('',#334,#333,#43,.T.);
#285=EDGE_CURVE('',#333,#328,#44,.T.);
#286=EDGE_CURVE('',#334,#329,#45,.T.);
#287=EDGE_CURVE('',#335,#336,#46,.T.);
#288=EDGE_CURVE('',#323,#336,#47,.T.);
#289=EDGE_CURVE('',#337,#319,#351,.F.);
#290=EDGE_CURVE('',#338,#337,#48,.T.);
#291=EDGE_CURVE('',#338,#339,#49,.T.);
#292=EDGE_CURVE('',#340,#339,#50,.T.);
#293=EDGE_CURVE('',#335,#340,#51,.T.);
#294=EDGE_CURVE('',#341,#341,#352,.F.);
#295=EDGE_CURVE('',#342,#337,#52,.T.);
#296=EDGE_CURVE('',#343,#342,#53,.T.);
#297=EDGE_CURVE('',#343,#338,#54,.T.);
#298=EDGE_CURVE('',#322,#342,#353,.T.);
#299=EDGE_CURVE('',#344,#343,#55,.T.);
#300=EDGE_CURVE('',#344,#339,#56,.T.);
#301=EDGE_CURVE('',#345,#336,#57,.T.);
#302=EDGE_CURVE('',#325,#345,#58,.T.);
#303=EDGE_CURVE('',#346,#335,#59,.T.);
#304=EDGE_CURVE('',#347,#340,#60,.T.);
#305=EDGE_CURVE('',#346,#347,#61,.T.);
#306=EDGE_CURVE('',#347,#344,#62,.T.);
#307=EDGE_CURVE('',#346,#345,#63,.T.);
#308=EDGE_CURVE('',#348,#348,#354,.T.);
#309=VERTEX_POINT('',#598);
#310=VERTEX_POINT('',#600);
#311=VERTEX_POINT('',#603);
#312=VERTEX_POINT('',#604);
#313=VERTEX_POINT('',#606);
#314=VERTEX_POINT('',#608);
#315=VERTEX_POINT('',#612);
#316=VERTEX_POINT('',#614);
#317=VERTEX_POINT('',#618);
#318=VERTEX_POINT('',#620);
#319=VERTEX_POINT('',#627);
#320=VERTEX_POINT('',#628);
#321=VERTEX_POINT('',#630);
#322=VERTEX_POINT('',#632);
#323=VERTEX_POINT('',#636);
#324=VERTEX_POINT('',#637);
#325=VERTEX_POINT('',#639);
#326=VERTEX_POINT('',#641);
#327=VERTEX_POINT('',#648);
#328=VERTEX_POINT('',#649);
#329=VERTEX_POINT('',#651);
#330=VERTEX_POINT('',#653);
#331=VERTEX_POINT('',#657);
#332=VERTEX_POINT('',#658);
#333=VERTEX_POINT('',#663);
#334=VERTEX_POINT('',#665);
#335=VERTEX_POINT('',#672);
#336=VERTEX_POINT('',#673);
#337=VERTEX_POINT('',#676);
#338=VERTEX_POINT('',#678);
#339=VERTEX_POINT('',#680);
#340=VERTEX_POINT('',#682);
#341=VERTEX_POINT('',#685);
#342=VERTEX_POINT('',#688);
#343=VERTEX_POINT('',#690);
#344=VERTEX_POINT('',#696);
#345=VERTEX_POINT('',#700);
#346=VERTEX_POINT('',#704);
#347=VERTEX_POINT('',#706);
#348=VERTEX_POINT('',#714);
#349=CIRCLE('',#458,0.00300272484826568);
#350=CIRCLE('',#459,0.00300272484826568);
#351=CIRCLE('',#472,0.003);
#352=CIRCLE('',#473,0.003);
#353=CIRCLE('',#476,0.003);
#354=CIRCLE('',#483,0.003);
#355=EDGE_LOOP('',(#135));
#356=EDGE_LOOP('',(#136));
#357=EDGE_LOOP('',(#137,#138,#139,#140));
#358=EDGE_LOOP('',(#141,#142,#143,#144));
#359=EDGE_LOOP('',(#145,#146,#147,#148));
#360=EDGE_LOOP('',(#149,#150,#151,#152));
#361=EDGE_LOOP('',(#153,#154,#155,#156));
#362=EDGE_LOOP('',(#157,#158,#159,#160));
#363=EDGE_LOOP('',(#161,#162,#163,#164));
#364=EDGE_LOOP('',(#165,#166,#167,#168));
#365=EDGE_LOOP('',(#169,#170,#171,#172));
#366=EDGE_LOOP('',(#173,#174,#175,#176));
#367=EDGE_LOOP('',(#177,#178,#179,#180));
#368=EDGE_LOOP('',(#181,#182,#183,#184,#185,#186,#187,#188,#189,#190));
#369=EDGE_LOOP('',(#191,#192,#193,#194));
#370=EDGE_LOOP('',(#195,#196,#197,#198));
#371=EDGE_LOOP('',(#199));
#372=EDGE_LOOP('',(#200));
#373=EDGE_LOOP('',(#201,#202,#203,#204));
#374=EDGE_LOOP('',(#205,#206,#207,#208));
#375=EDGE_LOOP('',(#209,#210,#211,#212));
#376=EDGE_LOOP('',(#213,#214,#215,#216));
#377=EDGE_LOOP('',(#217,#218,#219,#220));
#378=EDGE_LOOP('',(#221,#222,#223,#224));
#379=EDGE_LOOP('',(#225,#226,#227,#228));
#380=EDGE_LOOP('',(#229,#230,#231,#232,#233,#234,#235,#236,#237,#238));
#381=EDGE_LOOP('',(#239,#240,#241,#242));
#382=EDGE_LOOP('',(#243,#244,#245,#246));
#383=EDGE_LOOP('',(#247));
#384=EDGE_LOOP('',(#248));
#385=EDGE_LOOP('',(#249));
#386=EDGE_LOOP('',(#250));
#387=FACE_BOUND('',#355,.T.);
#388=FACE_BOUND('',#356,.T.);
#389=FACE_BOUND('',#357,.T.);
#390=FACE_BOUND('',#358,.T.);
#391=FACE_BOUND('',#359,.T.);
#392=FACE_BOUND('',#360,.T.);
#393=FACE_BOUND('',#361,.T.);
#394=FACE_BOUND('',#362,.T.);
#395=FACE_BOUND('',#363,.T.);
#396=FACE_BOUND('',#364,.T.);
#397=FACE_BOUND('',#365,.T.);
#398=FACE_BOUND('',#366,.T.);
#399=FACE_BOUND('',#367,.T.);
#400=FACE_BOUND('',#368,.T.);
#401=FACE_BOUND('',#369,.T.);
#402=FACE_BOUND('',#370,.T.);
#403=FACE_BOUND('',#371,.T.);
#404=FACE_BOUND('',#372,.T.);
#405=FACE_BOUND('',#373,.T.);
#406=FACE_BOUND('',#374,.T.);
#407=FACE_BOUND('',#375,.T.);
#408=FACE_BOUND('',#376,.T.);
#409=FACE_BOUND('',#377,.T.);
#410=FACE_BOUND('',#378,.T.);
#411=FACE_BOUND('',#379,.T.);
#412=FACE_BOUND('',#380,.T.);
#413=FACE_BOUND('',#381,.T.);
#414=FACE_BOUND('',#382,.T.);
#415=FACE_BOUND('',#383,.T.);
#416=FACE_BOUND('',#384,.T.);
#417=FACE_BOUND('',#385,.T.);
#418=FACE_BOUND('',#386,.T.);
#419=CYLINDRICAL_SURFACE('',#457,0.00300272484826568);
#420=CYLINDRICAL_SURFACE('',#475,0.003);
#421=CYLINDRICAL_SURFACE('',#484,0.003);
#422=ADVANCED_FACE('',(#387,#388),#419,.F.);
#423=ADVANCED_FACE('',(#389),#116,.F.);
#424=ADVANCED_FACE('',(#390),#117,.F.);
#425=ADVANCED_FACE('',(#391),#118,.T.);
#426=ADVANCED_FACE('',(#392),#119,.T.);
#427=ADVANCED_FACE('',(#393),#120,.F.);
#428=ADVANCED_FACE('',(#394),#121,.T.);
#429=ADVANCED_FACE('',(#395),#122,.F.);
#430=ADVANCED_FACE('',(#396),#123,.F.);
#431=ADVANCED_FACE('',(#397),#124,.F.);
#432=ADVANCED_FACE('',(#398),#125,.T.);
#433=ADVANCED_FACE('',(#399),#126,.T.);
#434=ADVANCED_FACE('',(#400,#401,#402,#403,#404),#127,.F.);
#435=ADVANCED_FACE('',(#405),#128,.F.);
#436=ADVANCED_FACE('',(#406),#420,.F.);
#437=ADVANCED_FACE('',(#407),#129,.T.);
#438=ADVANCED_FACE('',(#408),#130,.T.);
#439=ADVANCED_FACE('',(#409),#131,.F.);
#440=ADVANCED_FACE('',(#410),#132,.F.);
#441=ADVANCED_FACE('',(#411),#133,.T.);
#442=ADVANCED_FACE('',(#412,#413,#414,#415,#416),#134,.T.);
#443=ADVANCED_FACE('',(#417,#418),#421,.F.);
#444=CLOSED_SHELL('',(#422,#423,#424,#425,#426,#427,#428,#429,#430,#431,
#432,#433,#434,#435,#436,#437,#438,#439,#440,#441,#442,#443));
#445=STYLED_ITEM('',(#446),#453);
#446=PRESENTATION_STYLE_ASSIGNMENT((#447));
#447=SURFACE_STYLE_USAGE(.BOTH.,#448);
#448=SURFACE_SIDE_STYLE('',(#449));
#449=SURFACE_STYLE_FILL_AREA(#450);
#450=FILL_AREA_STYLE('',(#451));
#451=FILL_AREA_STYLE_COLOUR('',#452);
#452=COLOUR_RGB('',0.615686274509804,0.811764705882353,0.929411764705882);
#453=MANIFOLD_SOLID_BREP('Part 4',#444);
#454=SHAPE_DEFINITION_REPRESENTATION(#722,#455);
#455=SHAPE_REPRESENTATION('Part 4',(#456),#717);
#456=AXIS2_PLACEMENT_3D('',#595,#485,#486);
#457=AXIS2_PLACEMENT_3D('',#596,#487,#488);
#458=AXIS2_PLACEMENT_3D('',#597,#489,#490);
#459=AXIS2_PLACEMENT_3D('',#599,#491,#492);
#460=AXIS2_PLACEMENT_3D('',#601,#493,#494);
#461=AXIS2_PLACEMENT_3D('',#610,#499,#500);
#462=AXIS2_PLACEMENT_3D('',#616,#504,#505);
#463=AXIS2_PLACEMENT_3D('',#622,#509,#510);
#464=AXIS2_PLACEMENT_3D('',#625,#513,#514);
#465=AXIS2_PLACEMENT_3D('',#634,#519,#520);
#466=AXIS2_PLACEMENT_3D('',#643,#525,#526);
#467=AXIS2_PLACEMENT_3D('',#646,#529,#530);
#468=AXIS2_PLACEMENT_3D('',#655,#535,#536);
#469=AXIS2_PLACEMENT_3D('',#661,#540,#541);
#470=AXIS2_PLACEMENT_3D('',#667,#545,#546);
#471=AXIS2_PLACEMENT_3D('',#670,#549,#550);
#472=AXIS2_PLACEMENT_3D('',#675,#553,#554);
#473=AXIS2_PLACEMENT_3D('',#684,#559,#560);
#474=AXIS2_PLACEMENT_3D('',#686,#561,#562);
#475=AXIS2_PLACEMENT_3D('',#692,#566,#567);
#476=AXIS2_PLACEMENT_3D('',#693,#568,#569);
#477=AXIS2_PLACEMENT_3D('',#694,#570,#571);
#478=AXIS2_PLACEMENT_3D('',#698,#574,#575);
#479=AXIS2_PLACEMENT_3D('',#702,#578,#579);
#480=AXIS2_PLACEMENT_3D('',#708,#583,#584);
#481=AXIS2_PLACEMENT_3D('',#710,#586,#587);
#482=AXIS2_PLACEMENT_3D('',#712,#589,#590);
#483=AXIS2_PLACEMENT_3D('',#713,#591,#592);
#484=AXIS2_PLACEMENT_3D('',#715,#593,#594);
#485=DIRECTION('',(0.,0.,1.));
#486=DIRECTION('',(1.,0.,0.));
#487=DIRECTION('',(0.,-1.,0.));
#488=DIRECTION('',(-1.,0.,0.));
#489=DIRECTION('',(0.,1.,0.));
#490=DIRECTION('',(1.,0.,0.));
#491=DIRECTION('',(0.,1.,0.));
#492=DIRECTION('',(1.,0.,0.));
#493=DIRECTION('',(1.,0.,0.));
#494=DIRECTION('',(0.,-1.,0.));
#495=DIRECTION('',(0.,0.,1.));
#496=DIRECTION('',(0.,-1.,0.));
#497=DIRECTION('',(0.,0.,1.));
#498=DIRECTION('',(0.,-1.,0.));
#499=DIRECTION('',(2.77555756156289E-16,0.,-1.));
#500=DIRECTION('',(-1.,0.,-2.77555756156289E-16));
#501=DIRECTION('',(1.,0.,2.77555756156289E-16));
#502=DIRECTION('',(1.,0.,2.77555756156289E-16));
#503=DIRECTION('',(0.,-1.,0.));
#504=DIRECTION('',(1.,0.,0.));
#505=DIRECTION('',(0.,-1.,0.));
#506=DIRECTION('',(0.,0.,1.));
#507=DIRECTION('',(0.,0.,1.));
#508=DIRECTION('',(0.,-1.,0.));
#509=DIRECTION('',(0.,0.,-1.));
#510=DIRECTION('',(0.,1.,0.));
#511=DIRECTION('',(1.,0.,0.));
#512=DIRECTION('',(1.,0.,0.));
#513=DIRECTION('',(0.,0.,-1.));
#514=DIRECTION('',(0.,1.,0.));
#515=DIRECTION('',(1.,0.,0.));
#516=DIRECTION('',(0.,-1.,0.));
#517=DIRECTION('',(1.,0.,0.));
#518=DIRECTION('',(0.,-1.,0.));
#519=DIRECTION('',(0.,0.,-1.));
#520=DIRECTION('',(0.,1.,0.));
#521=DIRECTION('',(1.,0.,0.));
#522=DIRECTION('',(0.,-1.,0.));
#523=DIRECTION('',(1.,0.,0.));
#524=DIRECTION('',(0.,-1.,0.));
#525=DIRECTION('',(1.,0.,0.));
#526=DIRECTION('',(0.,-1.,0.));
#527=DIRECTION('',(0.,0.,1.));
#528=DIRECTION('',(0.,0.,1.));
#529=DIRECTION('',(1.,0.,0.));
#530=DIRECTION('',(0.,-1.,0.));
#531=DIRECTION('',(0.,0.,1.));
#532=DIRECTION('',(0.,-1.,0.));
#533=DIRECTION('',(0.,0.,1.));
#534=DIRECTION('',(0.,-1.,0.));
#535=DIRECTION('',(0.,0.,-1.));
#536=DIRECTION('',(0.,1.,0.));
#537=DIRECTION('',(0.,-1.,0.));
#538=DIRECTION('',(1.,0.,0.));
#539=DIRECTION('',(1.,0.,0.));
#540=DIRECTION('',(1.,0.,0.));
#541=DIRECTION('',(0.,-1.,0.));
#542=DIRECTION('',(0.,0.,1.));
#543=DIRECTION('',(0.,0.,1.));
#544=DIRECTION('',(0.,-1.,0.));
#545=DIRECTION('',(0.,0.,-1.));
#546=DIRECTION('',(0.,1.,0.));
#547=DIRECTION('',(1.,0.,0.));
#548=DIRECTION('',(1.,0.,0.));
#549=DIRECTION('',(0.,1.,0.));
#550=DIRECTION('',(1.,0.,0.));
#551=DIRECTION('',(-1.,0.,-2.77555756156289E-16));
#552=DIRECTION('',(-4.62592926927149E-17,0.,1.));
#553=DIRECTION('',(0.,1.,0.));
#554=DIRECTION('',(1.,0.,0.));
#555=DIRECTION('',(1.,0.,0.));
#556=DIRECTION('',(4.62592926927149E-17,0.,-1.));
#557=DIRECTION('',(-1.,0.,-2.77555756156289E-16));
#558=DIRECTION('',(0.,0.,-1.));
#559=DIRECTION('',(0.,1.,0.));
#560=DIRECTION('',(1.,0.,0.));
#561=DIRECTION('',(0.,0.,-1.));
#562=DIRECTION('',(0.,1.,0.));
#563=DIRECTION('',(0.,-1.,0.));
#564=DIRECTION('',(1.,0.,0.));
#565=DIRECTION('',(0.,-1.,0.));
#566=DIRECTION('',(0.,1.,0.));
#567=DIRECTION('',(1.,0.,0.));
#568=DIRECTION('',(0.,1.,0.));
#569=DIRECTION('',(1.,0.,0.));
#570=DIRECTION('',(-1.,0.,-4.62592926927149E-17));
#571=DIRECTION('',(-4.62592926927149E-17,0.,1.));
#572=DIRECTION('',(-4.62592926927149E-17,0.,1.));
#573=DIRECTION('',(0.,-1.,0.));
#574=DIRECTION('',(-1.,0.,-4.62592926927149E-17));
#575=DIRECTION('',(-4.62592926927149E-17,0.,1.));
#576=DIRECTION('',(0.,-1.,0.));
#577=DIRECTION('',(-4.62592926927149E-17,0.,1.));
#578=DIRECTION('',(-1.,0.,0.));
#579=DIRECTION('',(0.,1.,0.));
#580=DIRECTION('',(0.,-1.,0.));
#581=DIRECTION('',(0.,-1.,0.));
#582=DIRECTION('',(0.,0.,-1.));
#583=DIRECTION('',(-2.77555756156289E-16,0.,1.));
#584=DIRECTION('',(1.,0.,2.77555756156289E-16));
#585=DIRECTION('',(-1.,0.,-2.77555756156289E-16));
#586=DIRECTION('',(-2.77555756156289E-16,0.,1.));
#587=DIRECTION('',(1.,0.,2.77555756156289E-16));
#588=DIRECTION('',(-1.,0.,-2.77555756156289E-16));
#589=DIRECTION('',(0.,1.,0.));
#590=DIRECTION('',(1.,0.,0.));
#591=DIRECTION('',(0.,1.,0.));
#592=DIRECTION('',(1.,0.,0.));
#593=DIRECTION('',(0.,1.,0.));
#594=DIRECTION('',(1.,0.,0.));
#595=CARTESIAN_POINT('',(0.,0.,0.));
#596=CARTESIAN_POINT('',(0.1503,0.0065,0.0167));
#597=CARTESIAN_POINT('',(0.1503,0.0065,0.0167));
#598=CARTESIAN_POINT('',(0.153302724848266,0.0065,0.0167));
#599=CARTESIAN_POINT('',(0.1503,0.0035,0.0167));
#600=CARTESIAN_POINT('',(0.153302724848266,0.0035,0.0167));
#601=CARTESIAN_POINT('',(0.1443,0.0065,0.0227));
#602=CARTESIAN_POINT('',(0.1443,0.0035,0.0227));
#603=CARTESIAN_POINT('',(0.1443,0.0035,0.0167));
#604=CARTESIAN_POINT('',(0.1443,0.0035,0.0287));
#605=CARTESIAN_POINT('',(0.1443,0.0065,0.0287));
#606=CARTESIAN_POINT('',(0.1443,0.0065,0.0287));
#607=CARTESIAN_POINT('',(0.1443,0.0065,0.0227));
#608=CARTESIAN_POINT('',(0.1443,0.0065,0.0167));
#609=CARTESIAN_POINT('',(0.1443,0.0065,0.0167));
#610=CARTESIAN_POINT('',(0.13805,0.0065,0.0167));
#611=CARTESIAN_POINT('',(0.13805,0.0035,0.0167));
#612=CARTESIAN_POINT('',(0.1318,0.0035,0.0167));
#613=CARTESIAN_POINT('',(0.13805,0.0065,0.0167));
#614=CARTESIAN_POINT('',(0.1318,0.0065,0.0167));
#615=CARTESIAN_POINT('',(0.1318,0.0065,0.0167));
#616=CARTESIAN_POINT('',(0.1318,0.0065,0.0227));
#617=CARTESIAN_POINT('',(0.1318,0.0035,0.0227));
#618=CARTESIAN_POINT('',(0.1318,0.0035,0.0287));
#619=CARTESIAN_POINT('',(0.1318,0.0065,0.0227));
#620=CARTESIAN_POINT('',(0.1318,0.0065,0.0287));
#621=CARTESIAN_POINT('',(0.1318,0.0065,0.0287));
#622=CARTESIAN_POINT('',(0.13805,0.0065,0.0287));
#623=CARTESIAN_POINT('',(0.13805,0.0035,0.0287));
#624=CARTESIAN_POINT('',(0.13805,0.0065,0.0287));
#625=CARTESIAN_POINT('',(0.0924494960328539,0.0065,0.0217));
#626=CARTESIAN_POINT('',(0.0924494960328539,0.0035,0.0217));
#627=CARTESIAN_POINT('',(0.0881284271247462,0.0035,0.0217));
#628=CARTESIAN_POINT('',(0.0967705649409617,0.0035,0.0217));
#629=CARTESIAN_POINT('',(0.0967705649409617,0.0065,0.0217));
#630=CARTESIAN_POINT('',(0.0967705649409617,0.0065,0.0217));
#631=CARTESIAN_POINT('',(0.0924494960328539,0.0065,0.0217));
#632=CARTESIAN_POINT('',(0.0881284271247462,0.0065,0.0217));
#633=CARTESIAN_POINT('',(0.0881284271247462,0.0065,0.0217));
#634=CARTESIAN_POINT('',(0.0885352824704809,0.0065,0.0716));
#635=CARTESIAN_POINT('',(0.0885352824704809,0.0035,0.0716));
#636=CARTESIAN_POINT('',(0.0803,0.0035,0.0716));
#637=CARTESIAN_POINT('',(0.0967705649409617,0.0035,0.0716));
#638=CARTESIAN_POINT('',(0.0803,0.0065,0.0716));
#639=CARTESIAN_POINT('',(0.0803,0.0065,0.0716));
#640=CARTESIAN_POINT('',(0.0885352824704809,0.0065,0.0716));
#641=CARTESIAN_POINT('',(0.0967705649409617,0.0065,0.0716));
#642=CARTESIAN_POINT('',(0.0967705649409617,0.0065,0.0716));
#643=CARTESIAN_POINT('',(0.0967705649409617,0.0065,0.04665));
#644=CARTESIAN_POINT('',(0.0967705649409617,0.0035,0.04665));
#645=CARTESIAN_POINT('',(0.0967705649409617,0.0065,0.04665));
#646=CARTESIAN_POINT('',(0.137795489045154,0.0065,0.0459454890451537));
#647=CARTESIAN_POINT('',(0.137795489045154,0.0035,0.0459454890451537));
#648=CARTESIAN_POINT('',(0.137795489045154,0.0035,0.0324454890451537));
#649=CARTESIAN_POINT('',(0.137795489045154,0.0035,0.0594454890451537));
#650=CARTESIAN_POINT('',(0.137795489045154,0.0065,0.0594454890451537));
#651=CARTESIAN_POINT('',(0.137795489045154,0.0065,0.0594454890451537));
#652=CARTESIAN_POINT('',(0.137795489045154,0.0065,0.0459454890451537));
#653=CARTESIAN_POINT('',(0.137795489045154,0.0065,0.0324454890451537));
#654=CARTESIAN_POINT('',(0.137795489045154,0.0065,0.0324454890451537));
#655=CARTESIAN_POINT('',(0.120795489045154,0.0065,0.0324454890451537));
#656=CARTESIAN_POINT('',(0.103795489045154,0.0065,0.0324454890451537));
#657=CARTESIAN_POINT('',(0.103795489045154,0.0065,0.0324454890451537));
#658=CARTESIAN_POINT('',(0.103795489045154,0.0035,0.0324454890451537));
#659=CARTESIAN_POINT('',(0.120795489045154,0.0035,0.0324454890451537));
#660=CARTESIAN_POINT('',(0.120795489045154,0.0065,0.0324454890451537));
#661=CARTESIAN_POINT('',(0.103795489045154,0.0065,0.0459454890451537));
#662=CARTESIAN_POINT('',(0.103795489045154,0.0035,0.0459454890451537));
#663=CARTESIAN_POINT('',(0.103795489045154,0.0035,0.0594454890451537));
#664=CARTESIAN_POINT('',(0.103795489045154,0.0065,0.0459454890451537));
#665=CARTESIAN_POINT('',(0.103795489045154,0.0065,0.0594454890451537));
#666=CARTESIAN_POINT('',(0.103795489045154,0.0065,0.0594454890451537));
#667=CARTESIAN_POINT('',(0.120795489045154,0.0065,0.0594454890451537));
#668=CARTESIAN_POINT('',(0.120795489045154,0.0035,0.0594454890451537));
#669=CARTESIAN_POINT('',(0.120795489045154,0.0065,0.0594454890451537));
#670=CARTESIAN_POINT('',(0.1178,0.0035,0.0467));
#671=CARTESIAN_POINT('',(0.0803,0.0035,0.0817));
#672=CARTESIAN_POINT('',(0.1553,0.0035,0.0817));
#673=CARTESIAN_POINT('',(0.0803,0.0035,0.0817));
#674=CARTESIAN_POINT('',(0.0803,0.0035,0.0467));
#675=CARTESIAN_POINT('',(0.0853,0.0035,0.0207));
#676=CARTESIAN_POINT('',(0.0824715728752538,0.0035,0.0217));
#677=CARTESIAN_POINT('',(0.0813857864376269,0.0035,0.0217));
#678=CARTESIAN_POINT('',(0.0803,0.0035,0.0217));
#679=CARTESIAN_POINT('',(0.0803,0.0035,0.0117));
#680=CARTESIAN_POINT('',(0.0803,0.0035,0.0117));
#681=CARTESIAN_POINT('',(0.0803,0.0035,0.0117));
#682=CARTESIAN_POINT('',(0.1553,0.0035,0.0117));
#683=CARTESIAN_POINT('',(0.1553,0.0035,0.0467));
#684=CARTESIAN_POINT('',(0.1503,0.0035,0.0767));
#685=CARTESIAN_POINT('',(0.1533,0.0035,0.0767));
#686=CARTESIAN_POINT('',(0.0813857864376269,0.0065,0.0217));
#687=CARTESIAN_POINT('',(0.0824715728752538,0.0065,0.0217));
#688=CARTESIAN_POINT('',(0.0824715728752538,0.0065,0.0217));
#689=CARTESIAN_POINT('',(0.0813857864376269,0.0065,0.0217));
#690=CARTESIAN_POINT('',(0.0803,0.0065,0.0217));
#691=CARTESIAN_POINT('',(0.0803,0.0065,0.0217));
#692=CARTESIAN_POINT('',(0.0853,0.0005,0.0207));
#693=CARTESIAN_POINT('',(0.0853,0.0065,0.0207));
#694=CARTESIAN_POINT('',(0.0803,0.0035,0.0117));
#695=CARTESIAN_POINT('',(0.0803,0.0065,0.0467));
#696=CARTESIAN_POINT('',(0.0803,0.0065,0.0117));
#697=CARTESIAN_POINT('',(0.0803,0.0035,0.0117));
#698=CARTESIAN_POINT('',(0.0803,0.0035,0.0117));
#699=CARTESIAN_POINT('',(0.0803,0.0035,0.0817));
#700=CARTESIAN_POINT('',(0.0803,0.0065,0.0817));
#701=CARTESIAN_POINT('',(0.0803,0.0065,0.0467));
#702=CARTESIAN_POINT('',(0.1553,0.0035,0.0467));
#703=CARTESIAN_POINT('',(0.1553,0.0035,0.0817));
#704=CARTESIAN_POINT('',(0.1553,0.0065,0.0817));
#705=CARTESIAN_POINT('',(0.1553,0.0035,0.0117));
#706=CARTESIAN_POINT('',(0.1553,0.0065,0.0117));
#707=CARTESIAN_POINT('',(0.1553,0.0065,0.0467));
#708=CARTESIAN_POINT('',(0.0803,0.0035,0.0117));
#709=CARTESIAN_POINT('',(0.0803,0.0065,0.0117));
#710=CARTESIAN_POINT('',(0.0803,0.0035,0.0817));
#711=CARTESIAN_POINT('',(0.0803,0.0065,0.0817));
#712=CARTESIAN_POINT('',(0.1178,0.0065,0.0467));
#713=CARTESIAN_POINT('',(0.1503,0.0065,0.0767));
#714=CARTESIAN_POINT('',(0.1533,0.0065,0.0767));
#715=CARTESIAN_POINT('',(0.1503,0.0005,0.0767));
#716=MECHANICAL_DESIGN_GEOMETRIC_PRESENTATION_REPRESENTATION('',(#445),
#717);
#717=(
GEOMETRIC_REPRESENTATION_CONTEXT(3)
GLOBAL_UNCERTAINTY_ASSIGNED_CONTEXT((#718))
GLOBAL_UNIT_ASSIGNED_CONTEXT((#721,#720,#719))
REPRESENTATION_CONTEXT('Part 4','TOP_LEVEL_ASSEMBLY_PART')
);
#718=UNCERTAINTY_MEASURE_WITH_UNIT(LENGTH_MEASURE(1.E-8),#721,
'DISTANCE_ACCURACY_VALUE','Maximum Tolerance applied to model');
#719=(
NAMED_UNIT(*)
SI_UNIT($,.STERADIAN.)
SOLID_ANGLE_UNIT()
);
#720=(
NAMED_UNIT(*)
PLANE_ANGLE_UNIT()
SI_UNIT($,.RADIAN.)
);
#721=(
LENGTH_UNIT()
NAMED_UNIT(*)
SI_UNIT($,.METRE.)
);
#722=PRODUCT_DEFINITION_SHAPE('','',#723);
#723=PRODUCT_DEFINITION('','',#725,#724);
#724=PRODUCT_DEFINITION_CONTEXT('',#731,'design');
#725=PRODUCT_DEFINITION_FORMATION_WITH_SPECIFIED_SOURCE('','',#727,
 .NOT_KNOWN.);
#726=PRODUCT_RELATED_PRODUCT_CATEGORY('','',(#727));
#727=PRODUCT('Part 4','Part 4','Part 4',(#729));
#728=PRODUCT_CATEGORY('','');
#729=PRODUCT_CONTEXT('',#731,'mechanical');
#730=APPLICATION_PROTOCOL_DEFINITION('international standard',
'ap242_managed_model_based_3d_engineering',2020,#731);
#731=APPLICATION_CONTEXT('managed model based 3d engineering');
ENDSEC;
END-ISO-10303-21;
